<svg width="35" height="28" viewBox="0 0 35 28" fill="none" xmlns="http://www.w3.org/2000/svg">
<mask id="mask0_2_264" style="mask-type:luminance" maskUnits="userSpaceOnUse" x="0" y="0" width="35" height="28">
<path d="M34.6647 0H0V28H34.6647V0Z" fill="white"/>
</mask>
<g mask="url(#mask0_2_264)">
<path d="M32.1885 2.68201L31.9763 2.46982C30.3858 0.886769 28.2331 -0.00195313 25.989 -0.00195312C23.7449 -0.00195312 21.5922 0.886769 20.0016 2.46982L18.1365 4.33493L16.2725 2.46982C14.682 0.887092 12.5295 -0.0014252 10.2857 -0.0014252C8.04186 -0.0014252 5.88935 0.887092 4.29886 2.46982L4.08667 2.68201C2.81084 3.96224 1.97701 5.61633 1.70661 7.40341C1.43621 9.19049 1.74337 11.0172 2.58334 12.6176H4.81129C3.8613 11.3501 3.39957 9.78293 3.51063 8.20286C3.62168 6.6228 4.29808 5.13559 5.41602 4.01347L5.6282 3.80128C6.86604 2.57176 8.53992 1.88172 10.2846 1.88172C12.0293 1.88172 13.7032 2.57176 14.941 3.80128L16.769 5.63032L16.8061 5.66746C17.1623 6.01983 17.6269 6.24185 18.1249 6.29765C18.3784 6.28751 18.6274 6.22693 18.8573 6.11945C19.0872 6.01198 19.2934 5.85976 19.4638 5.6717H19.4701L19.9337 5.20701L20.0398 5.10092L21.3299 3.80977C22.5681 2.58044 24.2421 1.89055 25.9869 1.89055C27.7317 1.89055 29.4057 2.58044 30.6438 3.80977L30.856 4.02196C32.0889 5.25802 32.7812 6.93257 32.7812 8.67837C32.7812 10.4242 32.0889 12.0987 30.856 13.3348L18.1376 26.0458L10.2995 18.2087H7.63972L16.7 27.2658L16.7181 27.2839C17.0958 27.6706 17.5907 27.9216 18.1259 27.9979C18.391 27.985 18.6508 27.9187 18.8896 27.8029C19.1284 27.6871 19.3414 27.5243 19.5157 27.3242L19.555 27.287L32.18 14.6546C33.7653 13.0655 34.6556 10.9124 34.6556 8.66776C34.6556 6.42309 33.7653 4.27007 32.18 2.68094" fill="#1899D5"/>
<path d="M15.1851 19.5985C15.008 19.599 14.8344 19.5495 14.6842 19.4557C14.5341 19.3618 14.4135 19.2274 14.3363 19.0681L11.9948 14.3098L10.762 15.9786C10.6747 16.0971 10.5607 16.1933 10.4293 16.2597C10.2979 16.326 10.1528 16.3606 10.0056 16.3606H0.941043C0.691463 16.3606 0.452105 16.2614 0.275625 16.085C0.0991453 15.9085 0 15.6691 0 15.4195C0 15.17 0.0991453 14.9306 0.275625 14.7541C0.452105 14.5776 0.691463 14.4785 0.941043 14.4785H9.53456L11.4039 11.9492C11.4998 11.8194 11.6276 11.7164 11.7748 11.6502C11.922 11.584 12.0838 11.5568 12.2446 11.5712C12.4054 11.5856 12.5598 11.6411 12.6929 11.7324C12.8261 11.8237 12.9335 11.9477 13.0048 12.0925L14.9814 16.1081L17.1923 8.90438C17.2502 8.71569 17.366 8.55001 17.5233 8.43081C17.6805 8.3116 17.8714 8.24493 18.0687 8.24024C18.2662 8.23362 18.4608 8.29025 18.6239 8.40188C18.7871 8.51352 18.9103 8.67432 18.9757 8.86088L21.0191 14.523H23.9632C24.0893 14.5188 24.2151 14.54 24.3329 14.5854C24.4507 14.6307 24.5582 14.6993 24.6489 14.7871C24.7397 14.8748 24.8118 14.9799 24.8611 15.0962C24.9104 15.2124 24.9358 15.3373 24.9358 15.4636C24.9358 15.5898 24.9104 15.7147 24.8611 15.831C24.8118 15.9472 24.7397 16.0523 24.6489 16.1401C24.5582 16.2278 24.4507 16.2964 24.3329 16.3418C24.2151 16.3871 24.0893 16.4083 23.9632 16.4041H20.356C20.1626 16.4041 19.9739 16.3445 19.8156 16.2334C19.6573 16.1224 19.537 15.9653 19.4712 15.7834L18.161 12.1519L16.0847 18.9397C16.0293 19.1197 15.921 19.2789 15.7741 19.3968C15.6271 19.5146 15.4482 19.5856 15.2604 19.6006C15.236 19.6006 15.2105 19.6006 15.1851 19.6006" fill="#1899D5"/>
</g>
</svg>
