<svg width="25" height="28" viewBox="0 0 25 28" fill="none" xmlns="http://www.w3.org/2000/svg">
<path d="M24.2556 24.155H16.9121C18.4094 23.4641 19.7237 22.4315 20.7493 21.1403C21.775 19.8491 22.4834 18.3353 22.8176 16.7205C23.0964 15.3526 23.0945 13.9423 22.8121 12.5751C22.8068 12.5209 22.7957 12.4674 22.7791 12.4156C22.4806 11.0755 21.9206 9.80757 21.1313 8.6843C20.3419 7.56103 19.3387 6.60453 18.1791 5.86959L18.3456 5.54109C18.3786 5.47683 18.3984 5.40665 18.404 5.33465C18.4096 5.26264 18.4007 5.19025 18.378 5.1217C18.3553 5.05314 18.3192 4.98979 18.2717 4.93535C18.2243 4.88091 18.1664 4.83646 18.1016 4.80459L17.4016 4.45459L18.1016 3.0816L18.8121 3.4316C18.89 3.46986 18.9754 3.49035 19.0621 3.4916C19.185 3.49078 19.304 3.44886 19.4002 3.37252C19.4965 3.29618 19.5644 3.18982 19.5932 3.07039C19.6219 2.95097 19.6099 2.82535 19.559 2.71356C19.508 2.60177 19.4211 2.51026 19.3121 2.4536L14.5271 0.0586104C14.3955 -0.00707591 14.2432 -0.0180227 14.1036 0.0281597C13.9639 0.0743421 13.8482 0.173903 13.7817 0.305109C13.7489 0.369407 13.7292 0.439566 13.7238 0.511522C13.7183 0.583478 13.7272 0.655801 13.7499 0.724302C13.7726 0.792803 13.8086 0.856121 13.856 0.910587C13.9033 0.965054 13.961 1.00959 14.0256 1.04161L14.7191 1.38711L14.0206 2.7581L13.3207 2.4081C13.1897 2.34313 13.0386 2.33148 12.8992 2.3756C12.8299 2.39766 12.7657 2.43323 12.7102 2.48026C12.6548 2.52729 12.6092 2.58485 12.5762 2.6496L9.85666 7.97408C9.82404 8.0384 9.80447 8.10855 9.79909 8.18047C9.7937 8.2524 9.80261 8.32468 9.82529 8.39314C9.84797 8.46161 9.88399 8.5249 9.93125 8.57938C9.97851 8.63387 10.0361 8.67845 10.1007 8.71058L10.8007 9.06058L9.84067 10.9391C9.80737 11.0032 9.78727 11.0733 9.78155 11.1453C9.77582 11.2173 9.78459 11.2898 9.80734 11.3583C9.83009 11.4269 9.86635 11.4902 9.91398 11.5445C9.96162 11.5989 10.0197 11.6431 10.0847 11.6746L12.4762 12.8746C12.5541 12.9127 12.6394 12.9332 12.7262 12.9346C12.8283 12.9359 12.9288 12.9085 13.0162 12.8554C13.1035 12.8024 13.1742 12.7259 13.2202 12.6346L14.1801 10.7561L14.8801 11.1061C14.9448 11.139 15.0153 11.1589 15.0876 11.1644C15.16 11.17 15.2327 11.1612 15.3016 11.1386C15.3708 11.1165 15.4349 11.081 15.4902 11.0339C15.5455 10.9869 15.5908 10.9293 15.6236 10.8646L16.6611 8.82758C17.6696 9.53784 18.4764 10.4976 19.0028 11.6131C19.5291 12.7286 19.757 13.9616 19.6641 15.1916C19.6509 15.2378 19.6433 15.2855 19.6416 15.3336V15.3726C19.6191 15.5975 19.5866 15.817 19.5416 16.043C19.2903 17.294 18.7083 18.4548 17.8561 19.4045C17.0039 20.3542 15.9127 21.0582 14.6961 21.443C13.9604 20.7163 12.9663 20.3114 11.9322 20.317H5.27068C5.12482 20.317 4.98492 20.375 4.88178 20.4781C4.77863 20.5813 4.72069 20.7212 4.72069 20.867C4.72069 21.0129 4.77863 21.1528 4.88178 21.2559C4.98492 21.3591 5.12482 21.417 5.27068 21.417H9.22067C8.8479 21.77 8.55159 22.1958 8.35007 22.668C8.14856 23.1401 8.04615 23.6486 8.04917 24.162H1.2752C1.20539 24.1577 1.13542 24.1674 1.06945 24.1907C1.00347 24.2139 0.942836 24.2501 0.891124 24.2972C0.839413 24.3443 0.797684 24.4013 0.76841 24.4648C0.739136 24.5284 0.722912 24.5971 0.720703 24.667V27.413C0.720594 27.5632 0.777997 27.7077 0.881122 27.8169C0.984247 27.926 1.12526 27.9916 1.2752 28H24.2556C24.4056 27.9916 24.5468 27.9261 24.65 27.8169C24.7533 27.7078 24.811 27.5633 24.8111 27.413V24.667C24.8098 24.5964 24.7943 24.5268 24.7653 24.4624C24.7364 24.398 24.6947 24.3401 24.6428 24.2923C24.5909 24.2444 24.5298 24.2076 24.4633 24.184C24.3967 24.1604 24.3261 24.1505 24.2556 24.155ZM21.9131 14.8201H20.8036C20.8126 14.2675 20.7641 13.7156 20.6591 13.1731H21.7911C21.8827 13.7176 21.9235 14.2695 21.9131 14.8216V14.8201ZM12.4832 11.6581L11.0782 10.9551L11.7887 9.56507L13.1937 10.2676L12.4832 11.6581ZM14.8861 9.88357L11.0897 7.98958L13.3092 3.6396L17.1091 5.53459L14.8861 9.88357ZM16.4121 3.9596L15.0081 3.2551L15.7081 1.8831L17.1131 2.5856L16.4121 3.9596ZM17.1726 7.85958L17.6781 6.87608C19.5555 8.08173 20.929 9.9305 21.5411 12.0761H20.3751C19.8024 10.355 18.6755 8.8722 17.1706 7.85958H17.1726ZM18.5156 20.319C19.5906 19.2018 20.326 17.8021 20.6361 16.283C20.6636 16.157 20.6806 16.03 20.7031 15.9205H21.8246C21.7961 16.0855 21.7631 16.299 21.7246 16.4975C21.404 18.0661 20.686 19.5261 19.6393 20.7375C18.5927 21.949 17.2525 22.8715 15.7471 23.4165C15.677 23.0523 15.5537 22.7004 15.3811 22.372C16.5674 21.9326 17.639 21.2311 18.5156 20.319ZM11.9327 21.427C12.2944 21.4229 12.6534 21.4904 12.9889 21.6255C13.3245 21.7606 13.6301 21.9607 13.8881 22.2143C14.146 22.4679 14.3513 22.77 14.4922 23.1033C14.633 23.4365 14.7066 23.7943 14.7086 24.156H9.15867C9.16062 23.7944 9.23404 23.4367 9.37469 23.1036C9.51535 22.7704 9.72046 22.4684 9.97825 22.2148C10.236 21.9611 10.5414 21.761 10.8768 21.6258C11.2122 21.4906 11.5711 21.4231 11.9327 21.427ZM23.7001 26.9025H1.8307V25.255H23.7001V26.9025Z" fill="#1298D5"/>
</svg>
