<svg width="19" height="29" viewBox="0 0 19 29" fill="none" xmlns="http://www.w3.org/2000/svg">
<mask id="mask0_2_275" style="mask-type:luminance" maskUnits="userSpaceOnUse" x="0" y="0" width="19" height="29">
<path d="M18.919 0H0V28.23H18.919V0Z" fill="white"/>
</mask>
<g mask="url(#mask0_2_275)">
<path d="M11.952 21.657H6.96697C6.34429 21.6575 5.73718 21.4624 5.23137 21.0992C4.72556 20.736 4.34659 20.2232 4.14797 19.633L3.88197 18.85C3.47185 17.5723 2.84579 16.3743 2.03097 15.308C0.954807 13.9434 0.2757 12.3085 0.0682917 10.583C-0.139116 8.85757 0.133204 7.10832 0.855322 5.52756C1.57744 3.9468 2.7214 2.59573 4.16145 1.62284C5.60151 0.649964 7.28192 0.092941 9.01797 0.0130024C10.2959 -0.0466428 11.5727 0.153566 12.771 0.601518C13.9693 1.04947 15.0644 1.73586 15.9898 2.61915C16.9153 3.50245 17.6519 4.5643 18.1552 5.74046C18.6585 6.91663 18.918 8.18267 18.918 9.462C18.924 11.5443 18.2345 13.5691 16.959 15.215C16.1217 16.3115 15.4719 17.5391 15.036 18.848L14.77 19.634C14.5712 20.2241 14.1922 20.7369 13.6864 21.1C13.1806 21.4631 12.5736 21.6583 11.951 21.658M9.46197 1.863C9.34297 1.863 9.22297 1.863 9.10297 1.871C7.70868 1.9352 6.35909 2.38258 5.20254 3.16396C4.04599 3.94534 3.12726 5.03046 2.54735 6.30005C1.96743 7.56964 1.74878 8.97454 1.91544 10.3603C2.08209 11.7461 2.62759 13.0591 3.49197 14.155C4.43897 15.3885 5.16752 16.7753 5.64597 18.255L5.91097 19.039C5.98563 19.2599 6.12766 19.4518 6.31708 19.5878C6.50651 19.7238 6.7338 19.7969 6.96697 19.797H11.952C12.1852 19.7971 12.4125 19.724 12.602 19.588C12.7914 19.452 12.9334 19.26 13.008 19.039L13.274 18.252C13.7756 16.7486 14.5231 15.3388 15.486 14.08C16.3488 12.9556 16.8797 11.6121 17.0187 10.2016C17.1577 8.79106 16.8991 7.36981 16.2723 6.0986C15.6455 4.8274 14.6754 3.75698 13.4719 3.00844C12.2683 2.2599 10.8793 1.86313 9.46197 1.863Z" fill="#1899D5"/>
<path d="M11.591 28.23H7.32701C6.63418 28.2303 5.96959 27.9554 5.4794 27.4657C4.98921 26.9761 4.71354 26.3118 4.71301 25.619V24.906C4.71354 24.2136 4.98877 23.5497 5.47828 23.06C5.9678 22.5703 6.6316 22.2948 7.32401 22.294H11.588C12.2804 22.2948 12.9442 22.5703 13.4337 23.06C13.9233 23.5497 14.1985 24.2136 14.199 24.906V25.619C14.1985 26.3113 13.9232 26.9751 13.4337 27.4647C12.9441 27.9542 12.2803 28.2295 11.588 28.23M7.32701 24.157C7.12801 24.1573 6.93725 24.2365 6.79662 24.3773C6.656 24.5181 6.57701 24.709 6.57701 24.908V25.621C6.57728 25.8198 6.65638 26.0104 6.79697 26.151C6.93757 26.2916 7.12818 26.3707 7.32701 26.371H11.591C11.7898 26.3707 11.9805 26.2916 12.1211 26.151C12.2616 26.0104 12.3407 25.8198 12.341 25.621V24.908C12.341 24.709 12.262 24.5181 12.1214 24.3773C11.9808 24.2365 11.79 24.1573 11.591 24.157H7.32701Z" fill="#1899D5"/>
<path d="M6.65693 14.444C6.52139 14.4441 6.38746 14.4145 6.26454 14.3574C6.14161 14.3003 6.03266 14.217 5.9453 14.1133C5.85795 14.0097 5.7943 13.8882 5.75883 13.7574C5.72335 13.6266 5.71691 13.4896 5.73993 13.356L6.19293 10.716L4.27493 8.84599C4.15045 8.72485 4.06238 8.57127 4.0207 8.40265C3.97902 8.23403 3.9854 8.05711 4.03911 7.89193C4.09281 7.72674 4.19171 7.5799 4.32459 7.46804C4.45746 7.35617 4.61901 7.28375 4.79093 7.25899L7.44193 6.87399L8.62693 4.47399C8.70389 4.3184 8.82281 4.18743 8.97027 4.09585C9.11773 4.00428 9.28785 3.95575 9.46143 3.95575C9.63501 3.95575 9.80514 4.00428 9.9526 4.09585C10.1001 4.18743 10.219 4.3184 10.2959 4.47399L11.4809 6.87399L14.1319 7.25899C14.3039 7.28375 14.4654 7.35617 14.5983 7.46804C14.7312 7.5799 14.8301 7.72674 14.8838 7.89193C14.9375 8.05711 14.9438 8.23403 14.9022 8.40265C14.8605 8.57127 14.7724 8.72485 14.6479 8.84599L12.7299 10.716L13.1829 13.356C13.2125 13.5272 13.1935 13.7032 13.1282 13.8641C13.0628 14.025 12.9537 14.1645 12.8132 14.2666C12.6727 14.3687 12.5064 14.4294 12.3331 14.4418C12.1599 14.4543 11.9866 14.418 11.8329 14.337L9.45693 13.089L7.08693 14.336C6.95313 14.4064 6.80415 14.4432 6.65293 14.443M6.91993 8.82799L7.83793 9.72799C7.9462 9.83322 8.02719 9.96325 8.07389 10.1068C8.12058 10.2504 8.13158 10.4032 8.10593 10.552L7.88893 11.816L9.02393 11.216C9.1575 11.1453 9.30632 11.1084 9.45743 11.1084C9.60855 11.1084 9.75736 11.1453 9.89093 11.216L11.0259 11.816L10.8089 10.552C10.7835 10.4032 10.7945 10.2505 10.8412 10.1069C10.8879 9.96336 10.9688 9.83332 11.0769 9.72799L11.9949 8.82799L10.7259 8.64399C10.5768 8.62208 10.4352 8.56433 10.3133 8.47567C10.1913 8.38702 10.0928 8.27012 10.0259 8.13499L9.45693 6.98099L8.88893 8.13099C8.82219 8.26617 8.72361 8.38311 8.60168 8.47178C8.47975 8.56044 8.33811 8.61816 8.18893 8.63999L6.91993 8.82799Z" fill="#1899D5"/>
</g>
</svg>
