<svg xmlns="http://www.w3.org/2000/svg" width="72.187" height="71.591" viewBox="0 0 72.187 71.591">
  <path id="Caminho_83310" data-name="Caminho 83310" d="M71.548,24.828a2.3,2.3,0,0,0-1.706-.685c-.7.026-12.345.519-21.506,5.147-.017-.047-.026-.1-.045-.142C41.171,12.873,7.938.649,6.527.136A2.264,2.264,0,0,0,3.5,2.105c-.006.08-.566,7.974-1.932,18.212-.109.814-.228,1.653-.349,2.516-1.47,10.412-3.482,24.672,6.65,33.679a22.651,22.651,0,0,0,15.279,6.143,20.833,20.833,0,0,0,3.742-.337,2.264,2.264,0,0,0-.82-4.453c-3.053.56-9.085.693-15.193-4.738C2.555,45.736,4.3,33.387,5.7,23.466c.122-.874.243-1.725.352-2.549C6.925,14.368,7.474,8.753,7.763,5.479c8.054,3.266,31.139,13.5,36.381,25.483a2.2,2.2,0,0,0,.411.614A17.8,17.8,0,0,0,38.883,38c-4.762,9.6-.725,16.763,2.842,20-.874,1.6-1.656,3.1-2.321,4.441C31.868,33.431,18.532,18,17.93,17.315a2.264,2.264,0,1,0-3.4,2.989c.149.172,15.122,17.492,21.965,49.5A2.265,2.265,0,0,0,38.5,71.582c.069,0,.139.009.208.009A2.264,2.264,0,0,0,40.8,70.2c.1-.235,9.9-23.516,22.141-31.561a2.263,2.263,0,1,0-2.486-3.783C53.959,39.12,48.264,46.9,44.068,53.9c-1.909-2.143-4.637-6.815-1.129-13.886,4.11-8.283,18.653-10.564,24.553-11.156L66.275,47.379c-.006.062-.513,6.294-4.824,9.742-2.561,2.047-6.053,2.761-10.379,2.115a2.265,2.265,0,1,0-.666,4.48A24.646,24.646,0,0,0,54.049,64a15.883,15.883,0,0,0,10.265-3.37c5.856-4.714,6.454-12.6,6.478-12.938l1.389-21.134a2.263,2.263,0,0,0-.634-1.727" transform="translate(0 0)" fill="#fff"/>
</svg>
