<svg width="30" height="28" viewBox="0 0 30 28" fill="none" xmlns="http://www.w3.org/2000/svg">
<mask id="mask0_2_297" style="mask-type:luminance" maskUnits="userSpaceOnUse" x="0" y="0" width="30" height="28">
<path d="M29.8725 0H0V28H29.8725V0Z" fill="white"/>
</mask>
<g mask="url(#mask0_2_297)">
<path d="M22.4491 9.0964C20.7951 5.3927 22.9998 1.27206 23.0348 1.20628C23.0906 1.11254 23.127 1.0085 23.1418 0.900388C23.1566 0.792271 23.1494 0.682285 23.1208 0.57699C23.0921 0.471695 23.0426 0.373247 22.9751 0.287519C22.9075 0.201791 22.8235 0.130538 22.7278 0.0780105C22.6322 0.0254826 22.5269 -0.00724444 22.4183 -0.0182187C22.3098 -0.0291929 22.2001 -0.0181896 22.0959 0.014135C21.9917 0.0464596 21.895 0.0994434 21.8117 0.169926C21.7284 0.240409 21.6601 0.326948 21.611 0.42438C21.5049 0.620652 18.9704 5.29722 20.9638 9.76054C21.31 10.4773 21.7311 11.1555 22.22 11.7837C22.6074 12.2935 22.9581 12.8303 23.2692 13.39C17.8335 15.0337 12.0339 15.04 6.59463 13.408C6.90827 12.8415 7.26285 12.2986 7.65556 11.7837C8.14349 11.1555 8.56349 10.4773 8.90852 9.76054C10.9031 5.2951 8.37063 0.61853 8.26135 0.42438C8.2098 0.330894 8.14034 0.248477 8.05694 0.181835C7.97354 0.115193 7.87783 0.0656297 7.77528 0.0359763C7.56816 -0.0239114 7.34573 0.000931836 7.15692 0.105041C6.96812 0.20915 6.82841 0.383996 6.76852 0.591116C6.70863 0.798236 6.73348 1.02066 6.83759 1.20947C6.85986 1.25084 9.08251 5.38528 7.42322 9.10065C7.12223 9.71397 6.75813 10.2942 6.33683 10.8321C4.56932 13.2669 2.36896 16.2969 6.06947 27.4473C6.10027 27.5521 6.15185 27.6496 6.22114 27.7341C6.29044 27.8185 6.37603 27.8881 6.47281 27.9388C6.56959 27.9895 6.67558 28.0201 6.78447 28.029C6.89335 28.0378 7.0029 28.0246 7.10658 27.9902C7.21026 27.9558 7.30594 27.9008 7.38793 27.8286C7.46992 27.7564 7.53654 27.6685 7.58381 27.57C7.63108 27.4715 7.65804 27.3645 7.66307 27.2554C7.66811 27.1463 7.65112 27.0373 7.61312 26.9348C6.4538 23.8714 5.7985 20.6404 5.67269 17.3674C8.23966 18.6734 10.692 20.1934 13.0037 21.9113C13.3254 22.193 13.7082 22.3961 14.1219 22.5044V26.8298C14.118 26.9391 14.1361 27.048 14.1752 27.1501C14.2143 27.2522 14.2735 27.3454 14.3494 27.4241C14.4253 27.5028 14.5163 27.5654 14.6169 27.6081C14.7176 27.6509 14.8258 27.6729 14.9351 27.6729C15.0444 27.6729 15.1527 27.6509 15.2533 27.6081C15.3539 27.5654 15.4449 27.5028 15.5208 27.4241C15.5967 27.3454 15.656 27.2522 15.6951 27.1501C15.7342 27.048 15.7523 26.9391 15.7483 26.8298V22.5033C16.162 22.395 16.5448 22.192 16.8665 21.9103C19.1784 20.1927 21.6308 18.6727 24.1975 17.3663C24.072 20.6379 23.417 23.8675 22.2582 26.9295C22.2202 27.032 22.2032 27.141 22.2082 27.2501C22.2133 27.3592 22.2402 27.4662 22.2875 27.5647C22.3348 27.6632 22.4014 27.7511 22.4834 27.8233C22.5653 27.8955 22.661 27.9505 22.7647 27.9849C22.8684 28.0193 22.9779 28.0325 23.0868 28.0237C23.1957 28.0148 23.3017 27.9842 23.3985 27.9335C23.4953 27.8828 23.5809 27.8132 23.6501 27.7288C23.7194 27.6443 23.771 27.5468 23.8018 27.442C27.5023 16.2916 25.302 13.2616 23.5355 10.8268C23.1141 10.2894 22.75 9.70946 22.4491 9.0964ZM15.8714 20.6244C15.6236 20.8651 15.2906 20.9978 14.9452 20.9936H14.9219C14.5765 20.9978 14.2435 20.8651 13.9957 20.6244C11.4284 18.7163 8.69427 17.0435 5.82652 15.6264C5.87108 15.3792 5.92625 15.1458 5.98672 14.9241C8.84162 15.8393 11.8242 16.2934 14.8221 16.2693C17.8886 16.2677 20.9375 15.8071 23.8676 14.9029C23.9312 15.1299 23.9864 15.3707 24.0331 15.6264C21.1655 17.0438 18.4314 18.7166 15.864 20.6244" fill="#1899D5"/>
<path d="M6.40486 6.90666C6.55603 6.75003 6.64051 6.54084 6.64051 6.32315C6.64051 6.10547 6.55603 5.89628 6.40486 5.73964L4.25224 3.58384C4.17776 3.5038 4.08792 3.43959 3.98809 3.39505C3.88825 3.3505 3.78046 3.32653 3.67115 3.32456C3.56185 3.3226 3.45326 3.34268 3.35189 3.3836C3.25052 3.42453 3.15843 3.48546 3.08112 3.56277C3.00382 3.64007 2.94288 3.73216 2.90196 3.83354C2.86103 3.93491 2.84095 4.04349 2.84292 4.1528C2.84488 4.26211 2.86886 4.3699 2.9134 4.46973C2.95795 4.56957 3.02216 4.65941 3.10219 4.73388L3.8703 5.50199H0.813769C0.598236 5.50199 0.39153 5.58761 0.239124 5.74002C0.086719 5.89242 0.00109863 6.09913 0.00109863 6.31466C0.00109863 6.5302 0.086719 6.7369 0.239124 6.88931C0.39153 7.04171 0.598236 7.12733 0.813769 7.12733H3.88409L3.10219 7.90924C2.94983 8.06174 2.86428 8.26853 2.86438 8.48411C2.86448 8.69968 2.95021 8.90639 3.10272 9.05875C3.25523 9.21112 3.46201 9.29666 3.67759 9.29656C3.89316 9.29646 4.09987 9.21073 4.25224 9.05822L6.40486 6.90666Z" fill="#1899D5"/>
<path d="M29.0566 5.50199H26.0022L26.7703 4.73387C26.9139 4.57959 26.992 4.37562 26.9882 4.16491C26.9844 3.9542 26.899 3.75317 26.75 3.60415C26.6009 3.45513 26.3999 3.36974 26.1892 3.36595C25.9785 3.36216 25.7745 3.44026 25.6202 3.58383L23.4666 5.73645C23.3156 5.89321 23.2313 6.10235 23.2313 6.31996C23.2313 6.53757 23.3156 6.74671 23.4666 6.90347L25.6202 9.05609C25.7745 9.19966 25.9785 9.27777 26.1892 9.27398C26.3999 9.27018 26.6009 9.18479 26.75 9.03577C26.899 8.88675 26.9844 8.68572 26.9882 8.47501C26.992 8.2643 26.9139 8.06033 26.7703 7.90605L25.9884 7.12414H29.0566C29.2672 7.11654 29.4666 7.02753 29.6129 6.87586C29.7592 6.72418 29.8409 6.52167 29.8409 6.31094C29.8409 6.10021 29.7592 5.8977 29.6129 5.74603C29.4666 5.59436 29.2672 5.50535 29.0566 5.49774" fill="#1899D5"/>
<path d="M14.9368 9.87407C15.128 9.90332 15.3237 9.87331 15.4974 9.78806C15.6711 9.70282 15.8145 9.56643 15.9084 9.39723C16.0023 9.22804 16.0421 9.03416 16.0225 8.84166C16.003 8.64916 15.9249 8.46727 15.7989 8.32045C15.6728 8.17363 15.5049 8.06892 15.3175 8.02041C15.1302 7.97189 14.9326 7.98189 14.7511 8.04907C14.5696 8.11624 14.4131 8.23736 14.3025 8.39615C14.1919 8.55494 14.1326 8.74378 14.1326 8.93727C14.1162 9.16787 14.1914 9.39564 14.342 9.57105C14.4926 9.74647 14.7063 9.85537 14.9368 9.87407Z" fill="#1899D5"/>
</g>
</svg>
