<svg xmlns="http://www.w3.org/2000/svg" xmlns:xlink="http://www.w3.org/1999/xlink" width="83.75" height="58.294" viewBox="0 0 83.75 58.294"><defs><clipPath id="a"><rect width="83.75" height="58.294" fill="#fff"/></clipPath></defs><g clip-path="url(#a)"><path d="M81.686,23.421h-39a1.976,1.976,0,0,0,.029-.435c-.012-.307-.385-7.536-5.856-11.262A12.338,12.338,0,0,0,30.63,9.684C29.316,5.855,25.743.447,18.806.014,8.839-.614,3.531,20.216,2.957,22.592a2.065,2.065,0,0,0-.028.83H0V48.844a9.461,9.461,0,0,0,9.45,9.45H38.525a9.461,9.461,0,0,0,9.45-9.45V35.487a2.064,2.064,0,1,0-4.128,0V48.844a5.328,5.328,0,0,1-5.322,5.322H9.45a5.328,5.328,0,0,1-5.322-5.322V27.549H81.686a2.064,2.064,0,1,0,0-4.128M18.549,4.133a9.045,9.045,0,0,1,7.723,5.789,28.638,28.638,0,0,0-4.552,1.187,2.064,2.064,0,1,0,1.346,3.9c4.955-1.71,8.8-1.672,11.444.111,3.751,2.535,4.073,7.967,4.077,8.048a2.109,2.109,0,0,0,.036.25H7C8.6,16.9,13.454,3.787,18.549,4.133" transform="translate(0 0)" fill="#fff"/></g></svg>