<svg width="32" height="28" viewBox="0 0 32 28" fill="none" xmlns="http://www.w3.org/2000/svg">
<mask id="mask0_1_109" style="mask-type:luminance" maskUnits="userSpaceOnUse" x="0" y="0" width="32" height="28">
<path d="M31.6845 0H0.245605V28H31.6845V0Z" fill="white"/>
</mask>
<g mask="url(#mask0_1_109)">
<path d="M31.649 17.9717C31.3263 15.5836 28.1049 13.7679 23.7165 13.4362L24.3988 12.7539C25.7743 11.3746 26.5468 9.50611 26.5468 7.55812C26.5468 5.61012 25.7743 3.74162 24.3988 2.36229L24.1877 2.15059C22.8084 0.775029 20.9399 0.00256348 18.9919 0.00256348C17.0439 0.00256348 15.1754 0.775029 13.7961 2.15059L2.39817 13.5433C1.02072 14.9216 0.246948 16.7905 0.246948 18.7391C0.246948 20.6878 1.02072 22.5566 2.39817 23.935L2.60923 24.146C3.98755 25.5235 5.85643 26.2972 7.80506 26.2972C9.75368 26.2972 11.6226 25.5235 13.0009 24.146L13.0499 24.097C13.9413 26.3825 17.6016 27.9974 22.2598 27.9974C27.6312 27.9974 31.6833 25.8513 31.6833 23.0049V18.2176C31.682 18.1345 31.6701 18.0518 31.6478 17.9717M29.7405 18.3687C29.7405 19.8086 26.5416 21.4184 22.2617 21.4184C17.9818 21.4184 14.7823 19.8086 14.7823 18.3687C14.7823 16.9287 17.9811 15.3189 22.2617 15.3189C22.4173 15.3189 22.5683 15.326 22.72 15.3299L20.2944 18.1408C20.211 18.2374 20.1475 18.3495 20.1075 18.4706C20.0674 18.5917 20.0516 18.7196 20.0609 18.8468C20.0703 18.974 20.1046 19.0982 20.1619 19.2122C20.2193 19.3262 20.2985 19.4277 20.3951 19.5111C20.5901 19.6794 20.8441 19.7634 21.1011 19.7445C21.2283 19.7352 21.3525 19.7009 21.4665 19.6435C21.5804 19.5862 21.682 19.507 21.7654 19.4104L24.837 15.8488C24.9109 15.7618 24.9688 15.6624 25.0081 15.5552C27.8371 16.0528 29.7392 17.2598 29.7392 18.3687M15.1638 3.52345C16.1789 2.51129 17.5539 1.94291 18.9874 1.94291C20.4209 1.94291 21.7959 2.51129 22.811 3.52345L23.022 3.73451C24.0345 4.74933 24.6031 6.1243 24.6031 7.55779C24.6031 8.99129 24.0345 10.3663 23.022 11.3811L21.056 13.3471C21.0341 13.369 21.0257 13.3981 21.0063 13.4213C19.3323 13.5035 17.6852 13.8748 16.1377 14.5186L10.1545 8.53532L15.1638 3.52345ZM11.63 22.7751C10.6158 23.789 9.24042 24.3586 7.80635 24.3586C6.37228 24.3586 4.99692 23.789 3.98274 22.7751L3.77168 22.564C2.75778 21.5499 2.18821 20.1745 2.18821 18.7404C2.18821 17.3064 2.75778 15.931 3.77168 14.9168L8.78226 9.90689L14.4099 15.5345C13.9482 15.8547 13.5664 16.2769 13.2942 16.7683C13.022 17.2598 12.8666 17.8074 12.8402 18.3687C12.8402 18.3764 12.8402 18.3841 12.8402 18.3919C12.8402 18.3996 12.8402 18.4048 12.8402 18.4119V21.6107C12.7913 21.6371 12.7448 21.6678 12.7014 21.7024L11.63 22.7751ZM22.2624 26.0572C17.9818 26.0572 14.7829 24.4474 14.7829 23.0075V21.47C16.4772 22.6318 19.1436 23.3612 22.2624 23.3612C25.3811 23.3612 28.0468 22.6344 29.7411 21.4707V23.0075C29.7411 24.4474 26.5423 26.0572 22.2624 26.0572Z" fill="#1899D5"/>
</g>
</svg>
