<svg xmlns="http://www.w3.org/2000/svg" xmlns:xlink="http://www.w3.org/1999/xlink" width="65.94" height="71.591" viewBox="0 0 65.94 71.591">
  <defs>
    <clipPath id="clip-path">
      <rect id="Retângulo_996" data-name="Retângulo 996" width="65.94" height="71.591" fill="#fff"/>
    </clipPath>
  </defs>
  <g id="Grupo_2993" data-name="Grupo 2993" clip-path="url(#clip-path)">
    <path id="Caminho_83311" data-name="Caminho 83311" d="M65.874,28.293a7.475,7.475,0,0,0-2.959-4.872c0-1.81-.32-5.178-2.5-7.578a7.6,7.6,0,0,0-4.278-2.351A6.881,6.881,0,0,0,54.083,9.2a6.874,6.874,0,0,0-5.177-1.658c-.691-2.755-2.99-6.161-8.689-7.414C40.162.12,40.105.109,40.049.1A10.43,10.43,0,0,0,29.918,4.648c-2.09-.76-5.545-1.552-8.174.165-1.7,1.112-2.681,2.983-2.923,5.579-2.129-.238-5.137-.128-7.4,1.775-2.15,1.807-3.1,4.707-2.829,8.632a6.657,6.657,0,0,0-2.9,2.421,5.839,5.839,0,0,0-.857,3.7C3.134,28.243.148,31.1.005,34.936c-.113,3.022,1.5,5.861,4.808,8.449.165,3.808,2.143,9.806,8.979,11.023a10.682,10.682,0,0,0,1.872.166,10.529,10.529,0,0,0,4.594-1.092c1.972,2.065,7.031,8.135,7.031,16.093A2.013,2.013,0,0,0,29.3,71.59H41.6a2.015,2.015,0,0,0,2.014-2.069,33.4,33.4,0,0,1,5.536-18.832,12.743,12.743,0,0,0,7.739.93c3.406-.559,5.844-2.131,7.246-4.675,2.36-4.28.846-10.029.03-12.438a9.171,9.171,0,0,0,1.706-6.214M39.6,67.562H31.231c-.681-7.876-5.191-13.758-7.6-16.376a19.386,19.386,0,0,0,1.645-1.668L29.829,57.1a2.014,2.014,0,0,0,1.727.977,1.955,1.955,0,0,0,.383-.038,2.017,2.017,0,0,0,1.607-1.661L35.08,46.72a7.405,7.405,0,0,0,.976.113L36.651,55a2.012,2.012,0,0,0,1.606,1.827,1.961,1.961,0,0,0,.4.04A2.012,2.012,0,0,0,40.45,55.77l4.433-8.634a13.158,13.158,0,0,0,1,1.18A37.34,37.34,0,0,0,39.6,67.562M31.153,45.77l-.717,4.511-2.08-3.465a8.276,8.276,0,0,0,2.8-1.046m8.861-.051a13.642,13.642,0,0,0,1.657-1.145l-1.524,2.97ZM60.039,34.952c.736,1.752,2.273,6.974.568,10.055-.787,1.422-2.215,2.284-4.365,2.637a8.185,8.185,0,0,1-6.451-1.237c-3.285-2.4-4.021-7.151-4.028-7.192a2.014,2.014,0,0,0-3.624-.9c-1.344,1.851-4.209,4.533-5.9,4.5-2.426-.087-4.127-2.94-4.17-3.016a2.014,2.014,0,0,0-3.5,1.992c.023.04.157.27.388.6a5.948,5.948,0,0,1-.623.291,1.987,1.987,0,0,0-.759-.648,2.013,2.013,0,0,0-2.687.941c-.04.086-4.21,8.561-10.391,7.465-5.815-1.034-5.693-7.257-5.66-7.955A2.015,2.015,0,0,0,8,40.736C5.3,38.819,3.967,36.922,4.029,35.1c.089-2.567,2.96-4.879,4.055-5.55a2.015,2.015,0,0,0,.9-2.253,2.189,2.189,0,0,1,.1-1.9,3.417,3.417,0,0,1,2.022-1.215,2.015,2.015,0,0,0,1.651-2.272c-.328-2.276-.377-5.278,1.245-6.651,1.743-1.474,5.059-.863,6.185-.5A2.015,2.015,0,0,0,22.825,12.7c-.094-1.349-.073-3.73,1.118-4.511,1.447-.952,4.6.132,5.9.8A2.023,2.023,0,0,0,32.63,8a6.544,6.544,0,0,1,6.807-3.911c5.772,1.306,5.7,5.134,5.681,5.541a2.013,2.013,0,0,0,2.423,2.152c1.254-.266,2.931-.415,3.8.379a3.839,3.839,0,0,1,.822,2.918,2.011,2.011,0,0,0,.491,1.592,2.146,2.146,0,0,0,1.524.678,4.134,4.134,0,0,1,3.246,1.195c1.472,1.614,1.527,4.647,1.425,5.673a2.016,2.016,0,0,0,.922,1.913,4,4,0,0,1,2.107,2.7,5.872,5.872,0,0,1-1.485,4,2.019,2.019,0,0,0-.357,2.129" transform="translate(0 0.001)" fill="#fff"/>
    <path id="Caminho_83312" data-name="Caminho 83312" d="M16.155,33.213c-.028.008-3.03.838-3.769-.6-.85-1.654.685-3.292.771-3.382A2.014,2.014,0,0,0,10.3,26.4C8.914,27.778,7.042,31.033,8.8,34.457a5.91,5.91,0,0,0,5.6,3.045,10.16,10.16,0,0,0,2.936-.44,2.014,2.014,0,0,0-1.188-3.848" transform="translate(2.771 8.842)" fill="#fff"/>
    <path id="Caminho_83313" data-name="Caminho 83313" d="M28.89,11.691a2.568,2.568,0,0,1,1.868-.568,2.14,2.14,0,0,1,1.619.5,2.543,2.543,0,0,1,.452,1.668,2.012,2.012,0,0,0,1.764,2.235,2.052,2.052,0,0,0,.238.015,2.015,2.015,0,0,0,2-1.779A6.545,6.545,0,0,0,35.4,8.957,5.922,5.922,0,0,0,30.757,7.1a6.352,6.352,0,0,0-4.792,1.826,6.275,6.275,0,0,0-1.637,4.345,2.014,2.014,0,0,0,4.025-.141,2.257,2.257,0,0,1,.536-1.434" transform="translate(8.334 2.432)" fill="#fff"/>
    <path id="Caminho_83314" data-name="Caminho 83314" d="M42.843,22.372a6.778,6.778,0,0,0-3.489-1.035,5.656,5.656,0,0,0-1.241-2.3,5.976,5.976,0,0,0-4.645-1.845A6.144,6.144,0,0,0,28.8,19.011a6.562,6.562,0,0,0-1.627,4.605,2.014,2.014,0,0,0,4.021-.219,2.534,2.534,0,0,1,.55-1.639,2.341,2.341,0,0,1,1.727-.538,2.2,2.2,0,0,1,1.647.506,2.373,2.373,0,0,1,.463,1.567A2.013,2.013,0,0,0,36.254,25a2.036,2.036,0,0,0,1.787.454,3.952,3.952,0,0,1,2.6.29,1.859,1.859,0,0,1,.759,1.384,1.852,1.852,0,0,1-.239,1.582,3.506,3.506,0,0,1-2.111,1.007,2.014,2.014,0,0,0,.175,4.02c.059,0,.118,0,.179-.008a7.474,7.474,0,0,0,4.942-2.552,5.853,5.853,0,0,0,1.023-4.734,5.858,5.858,0,0,0-2.525-4.071" transform="translate(9.307 5.891)" fill="#fff"/>
    <path id="Caminho_83315" data-name="Caminho 83315" d="M22.65,14.394c-4.212.274-6.234,2.641-7.034,4.7a4.971,4.971,0,0,0-3.4,1.434,6.579,6.579,0,0,0-1.657,4.4A2,2,0,0,0,12.578,26.9h.011a2.023,2.023,0,0,0,2-2.014c0-.667.177-1.786,1.305-1.786,1.743,0,2.457,2.693,2.461,2.709a2.016,2.016,0,0,0,1.955,1.536,2.047,2.047,0,0,0,.481-.059,2.014,2.014,0,0,0,1.477-2.436,8.636,8.636,0,0,0-2.793-4.529c.376-.783,1.269-1.763,3.433-1.9,3.232-.211,3.81,2.838,3.894,3.437a2.014,2.014,0,0,0,4-.5c-.321-2.568-2.44-7.331-8.151-6.957" transform="translate(3.619 4.925)" fill="#fff"/>
  </g>
</svg>
