<svg width="31" height="28" viewBox="0 0 31 28" fill="none" xmlns="http://www.w3.org/2000/svg">
<mask id="mask0_1_142" style="mask-type:luminance" maskUnits="userSpaceOnUse" x="0" y="0" width="31" height="28">
<path d="M30.8738 0H0.191589V28H30.8738V0Z" fill="white"/>
</mask>
<g mask="url(#mask0_1_142)">
<path d="M5.84468 2.06237L4.67267 1.26993C4.93623 0.878734 5.2919 0.558315 5.70839 0.33687C6.12488 0.115425 6.58941 -0.000258478 7.0611 4.33648e-07H23.876V1.41328H7.0611C6.82169 1.414 6.58611 1.47336 6.37494 1.58616C6.16377 1.69896 5.98344 1.86177 5.84972 2.06035" fill="#009EDF"/>
<path d="M22.8736 28H7.06011C6.29651 27.9992 5.56443 27.6955 5.02449 27.1556C4.48455 26.6156 4.18086 25.8835 4.18005 25.1199V19.265H5.59333V25.1199C5.59386 25.5086 5.74863 25.8812 6.02365 26.1558C6.29867 26.4305 6.67144 26.5847 7.06011 26.5847H22.8736C23.2623 26.5844 23.635 26.4299 23.9098 26.1551C24.1846 25.8803 24.3391 25.5076 24.3394 25.1189V20.3542H25.7527V25.1199C25.7516 25.8835 25.4478 26.6154 24.908 27.1553C24.3681 27.6952 23.6361 27.9989 22.8726 28" fill="#009EDF"/>
<path d="M21.7532 22.6063H8.17969C7.75132 22.6063 7.34049 22.4362 7.03759 22.1333C6.73468 21.8303 6.56451 21.4195 6.56451 20.9912V19.7313H7.97779V20.9942C7.97779 21.0477 7.99906 21.0991 8.03692 21.1369C8.07479 21.1748 8.12614 21.1961 8.17969 21.1961H21.7532C21.8067 21.1961 21.8581 21.1748 21.8959 21.1369C21.9338 21.0991 21.9551 21.0477 21.9551 20.9942H23.3684C23.3684 21.4226 23.1982 21.8334 22.8953 22.1363C22.5924 22.4392 22.1816 22.6094 21.7532 22.6094" fill="#009EDF"/>
<path d="M14.9673 26.3566C14.6161 26.3566 14.2728 26.2525 13.9808 26.0573C13.6888 25.8622 13.4612 25.5849 13.3268 25.2604C13.1924 24.936 13.1573 24.5789 13.2258 24.2345C13.2943 23.8901 13.4634 23.5737 13.7117 23.3253C13.9601 23.077 14.2765 22.9079 14.6209 22.8394C14.9654 22.7708 15.3224 22.806 15.6469 22.9404C15.9713 23.0748 16.2486 23.3024 16.4438 23.5944C16.6389 23.8864 16.743 24.2297 16.743 24.5809C16.7425 25.0517 16.5552 25.503 16.2223 25.8359C15.8894 26.1688 15.4381 26.3561 14.9673 26.3566ZM14.9673 24.2205C14.8961 24.2205 14.8264 24.2417 14.7671 24.2813C14.7078 24.3209 14.6617 24.3772 14.6344 24.443C14.6071 24.5089 14.6 24.5813 14.6139 24.6512C14.6278 24.7211 14.6621 24.7853 14.7125 24.8357C14.7629 24.8861 14.8271 24.9205 14.897 24.9344C14.9669 24.9483 15.0394 24.9411 15.1052 24.9139C15.1711 24.8866 15.2274 24.8404 15.267 24.7811C15.3066 24.7219 15.3277 24.6522 15.3277 24.5809C15.3277 24.4853 15.2897 24.3937 15.2222 24.3261C15.1546 24.2585 15.0629 24.2205 14.9673 24.2205Z" fill="#009EDF"/>
<path d="M16.2484 21.8836C15.871 21.8828 15.5092 21.7324 15.2424 21.4655C14.9756 21.1985 14.8255 20.8366 14.825 20.4592V3.14357L24.1001 0.0535463C24.511 -0.025924 24.9344 -0.0135673 25.3399 0.0897314C25.7454 0.19303 26.1231 0.384716 26.4459 0.651063C26.7687 0.917411 27.0286 1.25183 27.207 1.63038C27.3854 2.00893 27.4779 2.42224 27.4779 2.84073V16.173C27.4769 16.8235 27.2529 17.4541 26.8432 17.9595C26.4336 18.4648 25.863 18.8145 25.2267 18.95L16.5199 21.8573C16.4305 21.8747 16.3395 21.8835 16.2484 21.8836ZM16.2403 4.16315V20.4653L24.9087 17.5711C25.2332 17.5081 25.5257 17.3343 25.7362 17.0795C25.9467 16.8246 26.0621 16.5045 26.0626 16.174V2.84073C26.0626 2.63439 26.0178 2.4305 25.9313 2.2432C25.8447 2.0559 25.7184 1.88965 25.5613 1.75599C25.4041 1.62232 25.2197 1.52443 25.0209 1.4691C24.8221 1.41376 24.6137 1.40231 24.41 1.43553L16.2403 4.16315Z" fill="#009EDF"/>
<path d="M14.817 21.8826C14.7259 21.8826 14.635 21.8741 14.5454 21.8573L2.4922 19.5254C1.84493 19.3999 1.26145 19.0532 0.841733 18.5447C0.422015 18.0362 0.192175 17.3976 0.19159 16.7382V3.406C0.191384 2.98746 0.283767 2.57406 0.462117 2.19542C0.640468 1.81678 0.900369 1.48228 1.22319 1.2159C1.54602 0.949511 1.92378 0.757838 2.32939 0.654613C2.735 0.551387 3.15843 0.539166 3.56932 0.618824L16.2424 3.06884V20.4582C16.2421 20.8357 16.0921 21.1977 15.8252 21.4647C15.5584 21.7317 15.1965 21.882 14.819 21.8826M14.819 20.4693C14.8202 20.4699 14.8216 20.4702 14.823 20.4702C14.8244 20.4702 14.8258 20.4699 14.8271 20.4693V4.23984L3.30079 2.00787C3.09456 1.96764 2.88199 1.97356 2.67832 2.02521C2.47465 2.07687 2.28494 2.17297 2.12281 2.30663C1.96069 2.44029 1.83016 2.60818 1.74061 2.79826C1.65106 2.98834 1.6047 3.19589 1.60486 3.406V16.7382C1.60513 17.0689 1.72039 17.3893 1.93089 17.6444C2.1414 17.8994 2.43404 18.0734 2.7587 18.1364L14.819 20.4693Z" fill="#009EDF"/>
<path d="M16.2484 22.471C15.8708 22.4702 15.5089 22.3197 15.2421 22.0525C14.9753 21.7853 14.8253 21.4232 14.825 21.0456H16.2383C16.2383 21.0456 16.2383 21.0456 16.2383 21.0537L28.2996 18.7248C28.6251 18.6627 28.9188 18.4891 29.1303 18.234C29.3417 17.9789 29.4578 17.6581 29.4585 17.3267V3.99347C29.4584 3.78361 29.4119 3.57637 29.3225 3.38656C29.233 3.19674 29.1026 3.02905 28.9408 2.89546C28.7789 2.76188 28.5896 2.6657 28.3862 2.61382C28.1829 2.56194 27.9706 2.55562 27.7646 2.59533L26.9035 2.7619L26.636 1.37184L27.496 1.20629C27.9069 1.12663 28.3303 1.13885 28.736 1.24208C29.1416 1.3453 29.5193 1.53697 29.8421 1.80336C30.165 2.06974 30.4249 2.40424 30.6032 2.78288C30.7816 3.16152 30.874 3.57493 30.8738 3.99347V17.3267C30.873 17.9858 30.6433 18.6242 30.2238 19.1327C29.8043 19.6411 29.2212 19.988 28.5742 20.1139L16.5199 22.4448C16.4305 22.4622 16.3395 22.471 16.2484 22.471Z" fill="#009EDF"/>
</g>
</svg>
