<svg width="29" height="28" viewBox="0 0 29 28" fill="none" xmlns="http://www.w3.org/2000/svg">
<path d="M27.9995 9.71111C27.9126 9.62316 27.8085 9.55406 27.6937 9.50814C27.5789 9.46222 27.4559 9.44046 27.3323 9.44423C27.0594 9.45424 22.5037 9.64439 18.9208 11.4572C18.9141 11.4392 18.9108 11.4198 18.9028 11.4018C16.1178 5.03531 3.11857 0.254084 2.56679 0.0532536C2.43799 0.00644273 2.30008 -0.00983052 2.16393 0.00571513C2.02777 0.0212608 1.89708 0.0682009 1.78214 0.14284C1.66721 0.217478 1.57117 0.317778 1.50159 0.435842C1.43201 0.553905 1.39078 0.686509 1.38116 0.823214C1.38116 0.854572 1.15965 3.94242 0.625211 7.94701C0.58251 8.26527 0.535805 8.59354 0.491769 8.93115C-0.0833654 13.0011 -0.870006 18.5817 3.09389 22.1045C4.71408 23.6266 6.84723 24.4839 9.07009 24.5065C9.56106 24.5062 10.051 24.4615 10.5339 24.373C10.7623 24.3279 10.9638 24.1947 11.0946 24.0021C11.2255 23.8096 11.2753 23.5733 11.2332 23.3443C11.191 23.1153 11.0605 22.9122 10.8696 22.7788C10.6788 22.6454 10.4432 22.5925 10.2137 22.6316C9.14717 22.8086 8.05401 22.7332 7.02194 22.4113C5.98987 22.0894 5.04763 21.53 4.27085 20.7781C1.01486 17.8891 1.69542 13.0592 2.24319 9.17868C2.29123 8.83707 2.33794 8.50413 2.38064 8.1812C2.72225 5.61978 2.93709 3.42333 3.04785 2.14295C6.19841 3.42066 15.2278 7.42525 17.2781 12.1104C17.3178 12.199 17.3721 12.2802 17.4389 12.3506C16.5058 12.9956 15.7444 13.8589 15.2211 14.8653C13.3582 18.6197 14.9395 21.422 16.3347 22.685C15.9931 23.3095 15.6868 23.8993 15.4266 24.4198C12.4789 13.0772 7.26261 7.04161 7.02709 6.77272C6.95188 6.68065 6.8589 6.60466 6.75369 6.5493C6.64848 6.49394 6.5332 6.46033 6.41472 6.45049C6.29624 6.44064 6.17699 6.45476 6.06408 6.49199C5.95118 6.52923 5.84693 6.58882 5.75755 6.66721C5.66818 6.74561 5.5955 6.8412 5.54387 6.94829C5.49223 7.05538 5.46269 7.17177 5.45701 7.29052C5.45133 7.40927 5.46962 7.52795 5.5108 7.63948C5.55197 7.75101 5.61519 7.8531 5.69667 7.93967C5.75539 8.00639 11.6115 14.7819 14.2877 27.2994C14.3271 27.4841 14.4245 27.6513 14.5656 27.7767C14.7068 27.9022 14.8843 27.9792 15.0723 27.9967C15.0997 27.9967 15.1263 28 15.1537 28C15.3285 28 15.4995 27.9482 15.6449 27.8512C15.7904 27.7542 15.9038 27.6163 15.971 27.4549C16.0097 27.3628 19.8409 18.2567 24.6314 15.1115C24.7322 15.0493 24.8195 14.9676 24.8881 14.8711C24.9567 14.7746 25.0053 14.6653 25.0309 14.5497C25.0566 14.4341 25.0588 14.3146 25.0374 14.1981C25.016 14.0817 24.9715 13.9707 24.9065 13.8717C24.8414 13.7728 24.7572 13.6879 24.6588 13.622C24.5604 13.5562 24.4497 13.5108 24.3335 13.4885C24.2172 13.4661 24.0976 13.4674 23.9818 13.4921C23.866 13.5168 23.7563 13.5645 23.6593 13.6323C21.1199 15.3003 18.8927 18.3435 17.2541 21.083C16.5075 20.245 15.4406 18.4142 16.8124 15.6513C18.4197 12.4113 24.1083 11.5193 26.4162 11.2877L25.9405 18.531C25.9405 18.555 25.7403 20.993 24.0536 22.3414C23.4731 22.7569 22.8116 23.0453 22.1122 23.1878C21.4127 23.3304 20.6911 23.3239 19.9943 23.1687C19.8776 23.1478 19.7578 23.1505 19.6422 23.1767C19.5265 23.2029 19.4173 23.2521 19.3209 23.3213C19.2246 23.3904 19.1432 23.4783 19.0814 23.5795C19.0197 23.6808 18.9789 23.7934 18.9614 23.9107C18.944 24.028 18.9503 24.1476 18.98 24.2625C19.0096 24.3773 19.0621 24.485 19.1341 24.5792C19.2062 24.6734 19.2964 24.7522 19.3995 24.8109C19.5025 24.8695 19.6163 24.9069 19.7341 24.9208C20.2056 24.9927 20.6817 25.0295 21.1586 25.0309C22.6078 25.0732 24.0261 24.6072 25.1679 23.7138C27.4584 21.8703 27.6926 18.7845 27.7033 18.6531L28.2464 10.3863C28.2546 10.2627 28.2367 10.1387 28.194 10.0224C28.1512 9.90604 28.0845 9.8 27.9982 9.71111" fill="#1899D5"/>
</svg>
