<svg width="32" height="28" viewBox="0 0 32 28" fill="none" xmlns="http://www.w3.org/2000/svg">
<mask id="mask0_2_270" style="mask-type:luminance" maskUnits="userSpaceOnUse" x="0" y="0" width="32" height="28">
<path d="M31.4389 0H0V28H31.4389V0Z" fill="white"/>
</mask>
<g mask="url(#mask0_2_270)">
<path d="M31.404 17.9724C31.0795 15.5843 27.86 13.768 23.4699 13.4368L24.1525 12.7542C25.5307 11.3758 26.305 9.50645 26.305 7.55726C26.305 5.60808 25.5307 3.73871 24.1525 2.36035L23.941 2.14885C22.5613 0.772768 20.6922 0 18.7435 0C16.7949 0 14.9258 0.772768 13.5461 2.14885L2.15291 13.5409C1.47036 14.2233 0.92893 15.0335 0.559529 15.9252C0.190129 16.8169 0 17.7726 0 18.7378C0 19.703 0.190129 20.6587 0.559529 21.5504C0.92893 22.4421 1.47036 23.2523 2.15291 23.9347L2.36442 24.1462C3.74278 25.5244 5.61215 26.2987 7.56133 26.2987C9.51052 26.2987 11.3799 25.5244 12.7582 24.1462L12.8075 24.097C13.7027 26.3821 17.3587 27.998 22.0173 27.998C27.3888 27.998 31.4387 25.8517 31.4387 23.0048V18.2186C31.4377 18.1353 31.426 18.0526 31.404 17.9724ZM29.5016 18.3685C29.5016 19.8076 26.3022 21.4179 22.0218 21.4179C17.7414 21.4179 14.542 19.8076 14.542 18.3685C14.542 16.9294 17.7414 15.3202 22.0218 15.3202C22.1763 15.3202 22.3284 15.3258 22.4795 15.3314L20.0545 18.1425C19.9712 18.2391 19.9077 18.3512 19.8677 18.4723C19.8277 18.5935 19.812 18.7213 19.8214 18.8486C19.8308 18.9758 19.8651 19.1 19.9225 19.2139C19.9799 19.3279 20.0592 19.4294 20.1558 19.5127C20.2524 19.5961 20.3645 19.6595 20.4857 19.6995C20.6068 19.7396 20.7347 19.7553 20.8619 19.7459C20.9892 19.7365 21.1133 19.7021 21.2273 19.6447C21.3412 19.5874 21.4428 19.5081 21.5261 19.4115L24.5979 15.8506C24.6717 15.7638 24.7293 15.6645 24.768 15.5574C27.5981 16.0554 29.5005 17.2618 29.5005 18.3707M14.9203 3.52305C15.9353 2.51107 17.3102 1.9428 18.7435 1.9428C20.1769 1.9428 21.5517 2.51107 22.5668 3.52305L22.7783 3.73456C23.2805 4.23659 23.6788 4.83262 23.9506 5.48863C24.2224 6.14463 24.3623 6.84775 24.3623 7.55782C24.3623 8.2679 24.2224 8.97102 23.9506 9.62702C23.6788 10.283 23.2805 10.8791 22.7783 11.3811L20.8144 13.3473C20.7965 13.3713 20.7801 13.3964 20.7651 13.4223C19.0911 13.5038 17.4437 13.8744 15.8961 14.5178L9.91024 8.53309L14.9203 3.52305ZM11.3829 22.7709C10.8809 23.2731 10.2849 23.6714 9.62885 23.9432C8.97285 24.215 8.26973 24.3548 7.55965 24.3548C6.84958 24.3548 6.14646 24.215 5.49046 23.9432C4.83445 23.6714 4.23841 23.2731 3.73638 22.7709L3.52488 22.5594C2.51126 21.5452 1.94185 20.17 1.94185 18.7361C1.94185 17.3022 2.51126 15.927 3.52488 14.9128L8.53715 9.90729L14.1649 15.535C13.7037 15.8553 13.3225 16.2775 13.0508 16.7689C12.7791 17.2603 12.6242 17.8076 12.5982 18.3685C12.5982 18.3763 12.5982 18.3842 12.5982 18.392C12.5978 18.3987 12.5978 18.4054 12.5982 18.4121V21.6115C12.5493 21.6383 12.5029 21.6694 12.4595 21.7044L11.3829 22.7709ZM22.014 26.0531C17.7336 26.0531 14.5342 24.4428 14.5342 23.0036V21.4705C16.7917 22.812 19.3902 23.469 22.014 23.3617C24.6378 23.469 27.2363 22.812 29.4938 21.4705V23.0081C29.4938 24.4472 26.2944 26.0576 22.014 26.0576" fill="#1899D5"/>
</g>
</svg>
