<svg width="21" height="28" viewBox="0 0 21 28" fill="none" xmlns="http://www.w3.org/2000/svg">
<mask id="mask0_1_126" style="mask-type:luminance" maskUnits="userSpaceOnUse" x="0" y="0" width="21" height="28">
<path d="M20.989 0H0.466064V28H20.989V0Z" fill="white"/>
</mask>
<g mask="url(#mask0_1_126)">
<path d="M20.0492 5.92261H18.7361V5.22405C18.7353 4.50834 18.4506 3.82217 17.9446 3.31609C17.4385 2.81001 16.7523 2.52536 16.0366 2.52458H9.57371L9.02072 0.67218C8.9629 0.478122 8.84401 0.307898 8.68173 0.186799C8.51944 0.0657002 8.32241 0.000189234 8.11993 1.23185e-08H4.41707C4.18893 -3.69062e-05 3.96856 0.0829111 3.79706 0.233374C3.62557 0.383838 3.51466 0.591543 3.48501 0.817754L2.81088 5.92261H1.40692C1.15739 5.92261 0.91808 6.02173 0.741635 6.19818C0.56519 6.37462 0.466064 6.61393 0.466064 6.86346L0.466064 10.8448C0.466064 11.0943 0.56519 11.3336 0.741635 11.51C0.91808 11.6865 1.15739 11.7856 1.40692 11.7856H2.25301L3.71852 27.15C3.74064 27.3829 3.84883 27.5992 4.02191 27.7565C4.195 27.9139 4.42055 28.0011 4.65449 28.001H16.7977C17.0316 28.0008 17.257 27.9136 17.43 27.7563C17.6031 27.5989 17.7113 27.3828 17.7337 27.15L19.1992 11.7856H20.0453C20.2948 11.7856 20.5341 11.6865 20.7105 11.51C20.887 11.3336 20.9861 11.0943 20.9861 10.8448V6.86346C20.9861 6.61393 20.887 6.37462 20.7105 6.19818C20.5341 6.02173 20.2948 5.92261 20.0453 5.92261M5.24167 1.88074H7.41844L7.97044 3.73705C8.02865 3.93008 8.14732 4.09931 8.30897 4.2198C8.47062 4.34029 8.6667 4.40567 8.86831 4.4063H16.0288C16.2457 4.40655 16.4536 4.49276 16.6071 4.64604C16.7605 4.79931 16.847 5.00716 16.8475 5.22405V5.92358H4.71115L5.24167 1.88074ZM2.3468 7.80432H19.1093V9.90391H2.3468V7.80432ZM15.9428 26.1193H5.5123L4.14449 11.7846H17.3135L15.9428 26.1193Z" fill="#1899D5"/>
</g>
</svg>
