<svg xmlns="http://www.w3.org/2000/svg" xmlns:xlink="http://www.w3.org/1999/xlink" width="72.606" height="64.664" viewBox="0 0 72.606 64.664">
  <defs>
    <clipPath id="clip-path">
      <rect id="Retângulo_999" data-name="Retângulo 999" width="72.606" height="64.664" fill="#fff"/>
    </clipPath>
  </defs>
  <g id="Grupo_2996" data-name="Grupo 2996" clip-path="url(#clip-path)">
    <path id="Caminho_83318" data-name="Caminho 83318" d="M72.524,41.5C71.775,35.988,64.338,31.8,54.2,31.03l1.575-1.575a16.992,16.992,0,0,0,0-24l-.488-.489a17,17,0,0,0-24.005,0L4.972,31.277a16.974,16.974,0,0,0,0,24.005l.488.488a16.974,16.974,0,0,0,24.005,0l.114-.114c2.058,5.278,10.511,9.008,21.27,9.008,12.4,0,21.759-4.957,21.759-11.53V42.073a2.229,2.229,0,0,0-.082-.568m-4.4.917c0,3.325-7.387,7.043-17.272,7.043s-17.273-3.718-17.273-7.043,7.387-7.043,17.273-7.043c.359,0,.707.016,1.059.025l-5.6,6.491a2.243,2.243,0,1,0,3.4,2.931L56.8,36.6a2.239,2.239,0,0,0,.395-.678c6.533,1.149,10.926,3.937,10.926,6.5M34.458,8.136a12.506,12.506,0,0,1,17.661,0l.488.488a12.5,12.5,0,0,1,0,17.659l-4.541,4.541c-.051.051-.07.118-.115.172a33.554,33.554,0,0,0-11.244,2.529L22.888,19.707ZM26.292,52.6a12.49,12.49,0,0,1-17.661,0l-.488-.488a12.49,12.49,0,0,1,0-17.661l11.572-11.57,13,13c-2.3,1.837-3.625,4.077-3.625,6.545,0,.018,0,.036,0,.054s0,.03,0,.046v7.387a2.16,2.16,0,0,0-.32.212Zm24.556,7.58c-9.886,0-17.273-3.718-17.273-7.043V49.584c3.913,2.689,10.07,4.367,17.273,4.367s13.359-1.678,17.272-4.366v3.549c0,3.325-7.387,7.043-17.272,7.043" transform="translate(0 0)" fill="#fff"/>
  </g>
</svg>
