<svg width="41" height="28" viewBox="0 0 41 28" fill="none" xmlns="http://www.w3.org/2000/svg">
<mask id="mask0_1_104" style="mask-type:luminance" maskUnits="userSpaceOnUse" x="0" y="0" width="41" height="28">
<path d="M40.5122 0H0.28479V28H40.5122V0Z" fill="white"/>
</mask>
<g mask="url(#mask0_1_104)">
<path d="M39.5203 11.2488H20.7862C20.7988 11.1788 20.8036 11.1076 20.8003 11.0366C20.7947 10.8894 20.615 7.41711 17.9874 5.62718C17.0977 5.03911 16.0657 4.70206 15.0004 4.65157C14.3637 2.81212 12.6494 0.212121 9.31792 0.00624384C4.52968 -0.295143 1.98275 9.71006 1.70541 10.8512C1.67399 10.9817 1.66942 11.1172 1.69197 11.2495H0.28479V23.4607C0.286101 24.6641 0.764758 25.8179 1.61574 26.6689C2.46672 27.5199 3.62052 27.9986 4.82399 27.9999H18.7897C19.9931 27.9986 21.147 27.5199 21.9979 26.6689C22.8489 25.8179 23.3276 24.6641 23.3289 23.4607V17.0452C23.3289 16.7825 23.2245 16.5306 23.0388 16.3449C22.853 16.1591 22.6011 16.0548 22.3384 16.0548C22.0757 16.0548 21.8238 16.1591 21.638 16.3449C21.4523 16.5306 21.3479 16.7825 21.3479 17.0452V23.4607C21.3472 24.1384 21.0776 24.7881 20.5984 25.2673C20.1192 25.7465 19.4695 26.0161 18.7918 26.0168H4.82399C4.14593 26.0166 3.49565 25.7473 3.01599 25.2681C2.53633 24.7888 2.26649 24.1387 2.26574 23.4607V13.2298H39.5203C39.783 13.2298 40.0349 13.1254 40.2207 12.9397C40.4064 12.7539 40.5108 12.502 40.5108 12.2393C40.5108 11.9766 40.4064 11.7247 40.2207 11.5389C40.0349 11.3532 39.783 11.2488 39.5203 11.2488ZM9.19411 1.98507C10.0118 2.05104 10.7941 2.34717 11.4506 2.83921C12.107 3.33126 12.6107 3.9991 12.9034 4.76547C12.1603 4.89528 11.4292 5.086 10.7173 5.3357C10.4688 5.42145 10.2645 5.60242 10.1494 5.83878C10.0343 6.07515 10.0178 6.34756 10.1036 6.59608C10.1893 6.8446 10.3703 7.04889 10.6067 7.16398C10.843 7.27908 11.1154 7.29557 11.364 7.20982C13.7439 6.38843 15.5933 6.40683 16.8604 7.26359C18.6623 8.48117 18.8166 11.0904 18.8187 11.1293C18.8219 11.1697 18.8276 11.2098 18.8357 11.2495H3.64957C4.41719 8.1154 6.74693 1.8181 9.19481 1.98153" fill="#1899D5"/>
</g>
</svg>
