<svg width="24" height="28" viewBox="0 0 24 28" fill="none" xmlns="http://www.w3.org/2000/svg">
<mask id="mask0_1_132" style="mask-type:luminance" maskUnits="userSpaceOnUse" x="0" y="0" width="24" height="28">
<path d="M23.7716 0H0.651428V28H23.7716V0Z" fill="white"/>
</mask>
<g mask="url(#mask0_1_132)">
<path d="M22.7863 28H1.63667C1.37537 28 1.12477 27.8962 0.94 27.7114C0.755231 27.5267 0.651428 27.2761 0.651428 27.0148L0.651428 11.9157C0.652455 11.6702 0.745008 11.4339 0.910994 11.253C2.45983 9.57465 3.31988 7.37462 3.31999 5.09081C3.32044 3.814 3.05093 2.55152 2.52914 1.3862C2.46204 1.23627 2.43353 1.07194 2.44621 0.908169C2.45889 0.744403 2.51236 0.586415 2.60174 0.448607C2.69112 0.3108 2.81357 0.197556 2.95794 0.119199C3.1023 0.0408422 3.26398 -0.000135331 3.42823 1.88776e-06H6.78934C6.92411 1.88628e-05 7.05744 0.0276852 7.18109 0.0812898C7.30474 0.134894 7.41608 0.213297 7.50822 0.31165C7.60037 0.410002 7.67135 0.526212 7.71678 0.653093C7.76222 0.779973 7.78114 0.914826 7.77238 1.04931C7.76133 1.19842 7.75581 1.27022 7.75581 1.34091C7.75581 2.52249 8.22519 3.65567 9.06069 4.49118C9.89619 5.32668 11.0294 5.79606 12.211 5.79606C13.3925 5.79606 14.5257 5.32668 15.3612 4.49118C16.1967 3.65567 16.6661 2.52249 16.6661 1.34091C16.6661 1.26911 16.6595 1.19842 16.6551 1.12773C16.6359 0.84582 16.7292 0.567803 16.9146 0.354558C17.0043 0.249884 17.1142 0.164489 17.2378 0.103545C17.3614 0.042601 17.4961 0.00737565 17.6337 1.88776e-06H20.765C20.9294 -0.000319981 21.0912 0.0405227 21.2357 0.118803C21.3802 0.197083 21.5028 0.310307 21.5923 0.448143C21.6819 0.585979 21.7354 0.744037 21.7482 0.907893C21.7609 1.07175 21.7324 1.23619 21.6652 1.3862C20.9184 3.05645 20.693 4.9132 21.0186 6.71362C21.3442 8.51404 22.2055 10.1743 23.4899 11.4772C23.6705 11.6616 23.7716 11.9095 23.7716 12.1676V27.0148C23.7716 27.2761 23.6678 27.5267 23.483 27.7114C23.2982 27.8962 23.0476 28 22.7863 28ZM2.62192 26.0295H21.8011V12.5542C20.5162 11.1491 19.6158 9.43604 19.187 7.58093C18.7582 5.72582 18.8155 3.79143 19.3534 1.96497H18.6057C18.4494 3.55233 17.7082 5.02479 16.5264 6.09596C15.3445 7.16713 13.8065 7.76041 12.2115 7.76041C10.6165 7.76041 9.07847 7.16713 7.89664 6.09596C6.71481 5.02479 5.97366 3.55233 5.81735 1.96497H4.84094C5.14047 2.97985 5.29188 4.03266 5.29048 5.09081C5.29025 7.73212 4.3435 10.2859 2.62192 12.2891V26.0295Z" fill="#1899D5"/>
</g>
</svg>
