<svg xmlns="http://www.w3.org/2000/svg" xmlns:xlink="http://www.w3.org/1999/xlink" width="45.965" height="64.707" viewBox="0 0 45.965 64.707">
  <defs>
    <clipPath id="clip-path">
      <rect id="Retângulo_997" data-name="Retângulo 997" width="45.965" height="64.707" fill="#fff"/>
    </clipPath>
  </defs>
  <g id="Grupo_2994" data-name="Grupo 2994" clip-path="url(#clip-path)">
    <path id="Caminho_83316" data-name="Caminho 83316" d="M15.454,64.706a1.866,1.866,0,0,1-.924-.244c-.738-.416-18.01-10.373-13.9-26.088,1.734-6.628,6.728-11.8,11.559-16.794,6.17-6.384,11.5-11.9,9.06-19.09A1.887,1.887,0,0,1,24.077.31c.21.138,19.353,13.1,11.547,37.15,1.919-1.714,3.5-3.648,3.694-5.324a1.886,1.886,0,0,1,3.55-.648c.111.213,10.733,21.389-8.005,32.937a1.888,1.888,0,0,1-2.842-1.969,22.6,22.6,0,0,0,.409-5.373C30.84,59.671,28.758,62.533,27,63.171a1.886,1.886,0,0,1-2.466-2.264,18.364,18.364,0,0,0-1.473-11.969A21.586,21.586,0,0,1,20.751,38.9a20.888,20.888,0,0,0-4.49,16.093,1.887,1.887,0,0,1-3.75.423c-1.736-15.384,9.144-22.6,9.609-22.9a1.887,1.887,0,0,1,2.854,2.046c-.016.063-1.631,6.805,1.429,12.624A20.766,20.766,0,0,1,28.7,55.9c.767-1.192,1.572-2.558,2.3-3.935a1.89,1.89,0,0,1,2.606-.758c2.268,1.3,2.725,4.608,2.635,7.515C43.953,51.768,42.65,42.4,41.05,37.162c-2.906,3.919-7.941,6.839-8.69,7.26a1.886,1.886,0,0,1-2.622-2.466c8.85-18.252,1.043-30.115-4.1-35.379-.263,6.8-5.566,12.284-10.729,17.626-4.492,4.648-9.138,9.455-10.622,15.127-3.373,12.891,11.949,21.76,12.1,21.848a1.887,1.887,0,0,1-.932,3.528" transform="translate(0 0.001)" fill="#fff"/>
  </g>
</svg>
