<svg width="27" height="28" viewBox="0 0 27 28" fill="none" xmlns="http://www.w3.org/2000/svg">
<mask id="mask0_1_90" style="mask-type:luminance" maskUnits="userSpaceOnUse" x="0" y="0" width="27" height="28">
<path d="M26.632 0H0.842163V28H26.632V0Z" fill="white"/>
</mask>
<g mask="url(#mask0_1_90)">
<path d="M26.6065 11.0661C26.4875 10.303 26.0714 9.61799 25.4491 9.16063C25.489 8.08776 25.1427 7.03617 24.473 6.19701C24.0321 5.71532 23.4449 5.39217 22.802 5.27746C22.7416 4.64039 22.4562 4.04569 21.9969 3.60004C21.7212 3.35931 21.3992 3.17742 21.0507 3.06552C20.7021 2.95363 20.3344 2.91409 19.9701 2.94933C19.6998 1.87397 18.8009 0.541083 16.5696 0.049605C16.5499 0.049605 16.5278 0.0432158 16.5057 0.0402669C15.7447 -0.0665296 14.9691 0.0437592 14.2681 0.358434C13.5671 0.673108 12.9693 1.17937 12.5434 1.81893C11.7255 1.52404 10.3745 1.21195 9.34876 1.88331C9.00073 2.13227 8.71584 2.45927 8.5169 2.83812C8.31796 3.21697 8.21049 3.63714 8.20312 4.06498C7.69887 3.98111 7.18292 3.99932 6.68584 4.11852C6.18876 4.23773 5.72066 4.45551 5.3093 4.75895C4.46838 5.46569 4.09731 6.60003 4.20298 8.13491C3.74288 8.33499 3.35036 8.66369 3.07258 9.0815C2.80298 9.51271 2.68502 10.0216 2.73739 10.5274C2.068 11.0469 0.900247 12.164 0.842252 13.6635C0.798019 14.8456 1.43203 15.9558 2.72265 16.9682C2.78703 18.4574 3.56062 20.8018 6.23475 21.2795C6.47631 21.3226 6.72119 21.3443 6.96656 21.3444C7.59012 21.3399 8.20452 21.1938 8.76341 20.9173C9.53503 21.7248 11.5157 24.0991 11.5157 27.2111C11.5157 27.4197 11.5985 27.6197 11.746 27.7672C11.8935 27.9147 12.0935 27.9975 12.302 27.9975H17.1126C17.2178 27.9976 17.322 27.9765 17.4189 27.9356C17.5158 27.8946 17.6035 27.8347 17.6768 27.7593C17.7502 27.6838 17.8076 27.5944 17.8458 27.4964C17.8839 27.3984 17.902 27.2937 17.899 27.1885C17.8666 24.572 18.6209 22.0061 20.064 19.8232C21.0101 20.2576 22.0684 20.3848 23.0905 20.1869C23.6737 20.1276 24.2345 19.931 24.7271 19.6132C25.2196 19.2954 25.6299 18.8655 25.9243 18.3586C26.8473 16.6847 26.2551 14.4362 25.9361 13.493C26.4452 12.7903 26.6823 11.9268 26.6036 11.0626M16.3287 26.4248H13.057C12.7814 24.0259 11.7397 21.7798 10.0865 20.0198C10.3139 19.8156 10.5287 19.5978 10.7298 19.3676L12.509 22.3327C12.5788 22.4494 12.6778 22.546 12.7962 22.613C12.9145 22.68 13.0482 22.7152 13.1843 22.7151C13.2338 22.715 13.2831 22.71 13.3317 22.7004C13.4906 22.6699 13.6362 22.5911 13.7487 22.4749C13.8612 22.3586 13.9351 22.2104 13.9603 22.0506L14.5604 18.2731C14.6866 18.2963 14.8141 18.3111 14.9423 18.3174L15.1747 21.512C15.187 21.6833 15.255 21.846 15.3685 21.975C15.4819 22.1041 15.6345 22.1924 15.8028 22.2266C15.8548 22.2373 15.9076 22.2425 15.9606 22.2423C16.1054 22.2424 16.2475 22.2024 16.3711 22.1269C16.4947 22.0514 16.595 21.9432 16.661 21.8142L18.3949 18.4373C18.5168 18.5987 18.6481 18.7528 18.7881 18.8988C17.2914 21.1338 16.441 23.7387 16.3307 26.4263M13.0265 17.9016L12.7459 19.666L11.9325 18.3105C12.3189 18.2416 12.6896 18.1031 13.0265 17.9016ZM16.4924 17.8814C16.719 17.7483 16.9356 17.5987 17.1402 17.4337L16.544 18.595L16.4924 17.8814ZM24.3246 13.6704C24.6126 14.3556 25.2137 16.3976 24.5467 17.6023C24.3638 17.8968 24.1138 18.1438 23.8172 18.3232C23.5205 18.5026 23.1856 18.6092 22.8398 18.6344C22.4086 18.7324 21.9618 18.74 21.5276 18.6568C21.0933 18.5735 20.681 18.4012 20.3166 18.1507C19.0319 17.2125 18.7438 15.3537 18.7414 15.3375C18.7201 15.1817 18.6526 15.0358 18.5476 14.9188C18.4426 14.8017 18.3048 14.7189 18.1522 14.6809C17.9996 14.6429 17.8391 14.6515 17.6915 14.7057C17.5438 14.7598 17.4158 14.857 17.324 14.9846C16.7981 15.7086 15.6775 16.7574 15.0165 16.7441C14.0674 16.7102 13.4025 15.5941 13.3853 15.5646C13.3341 15.4747 13.2657 15.3958 13.184 15.3324C13.1023 15.2689 13.009 15.2222 12.9092 15.1948C12.8095 15.1674 12.7053 15.16 12.6027 15.1729C12.5001 15.1858 12.401 15.2188 12.3111 15.2699C12.2213 15.3211 12.1424 15.3895 12.0789 15.4712C12.0155 15.5529 11.9687 15.6462 11.9414 15.746C11.914 15.8457 11.9066 15.9499 11.9194 16.0525C11.9323 16.1551 11.9653 16.2542 12.0165 16.3441C12.0253 16.3598 12.0779 16.4497 12.1684 16.5805C12.0887 16.6232 12.0067 16.6613 11.9226 16.6945C11.8474 16.5863 11.7459 16.4991 11.6277 16.4409C11.5346 16.3959 11.4335 16.3698 11.3302 16.364C11.227 16.3582 11.1236 16.3728 11.026 16.407C10.9284 16.4412 10.8385 16.4943 10.7614 16.5633C10.6844 16.6322 10.6217 16.7158 10.577 16.809C10.5612 16.8424 8.93002 20.157 6.51293 19.7289C4.23886 19.3244 4.28653 16.8906 4.30128 16.6178C4.30863 16.4851 4.28224 16.3528 4.22457 16.233C4.1669 16.1133 4.07983 16.0102 3.97149 15.9332C2.91776 15.1832 2.39631 14.4416 2.42039 13.7279C2.45528 12.7238 3.57831 11.8195 4.00639 11.5571C4.15275 11.4682 4.26612 11.3341 4.32928 11.1749C4.39244 11.0158 4.40193 10.8404 4.35632 10.6754C4.30661 10.5565 4.28437 10.4279 4.29126 10.2993C4.29816 10.1706 4.334 10.0451 4.39613 9.93225C4.59495 9.68497 4.87526 9.5165 5.18692 9.45699C5.38924 9.42245 5.57003 9.31018 5.6907 9.14415C5.81136 8.97812 5.86233 8.77149 5.83272 8.5684C5.70445 7.67833 5.68528 6.50419 6.31928 5.967C7.00096 5.3905 8.29798 5.62936 8.73834 5.77041C8.86112 5.81118 8.99206 5.82103 9.11956 5.79909C9.24706 5.77714 9.36717 5.72408 9.46926 5.6446C9.57134 5.56512 9.65223 5.46168 9.70477 5.34346C9.75731 5.22523 9.77987 5.09587 9.77044 4.96684C9.73358 4.439 9.74194 3.50814 10.2079 3.20244C10.774 2.8299 12.0077 3.25159 12.5149 3.51698C12.6114 3.56693 12.7171 3.59645 12.8256 3.60372C12.934 3.61099 13.0428 3.59585 13.1451 3.55924C13.2474 3.52262 13.3411 3.46533 13.4203 3.39092C13.4995 3.31651 13.5625 3.22659 13.6054 3.12675C13.8241 2.61851 14.2015 2.19481 14.6813 1.91915C15.161 1.6435 15.7171 1.53073 16.2663 1.59776C18.5237 2.1089 18.4976 3.60594 18.4883 3.76469C18.4768 3.88761 18.4944 4.01151 18.5398 4.12636C18.5851 4.2412 18.6568 4.34376 18.7491 4.42574C18.8414 4.50772 18.9517 4.56681 19.0711 4.59823C19.1905 4.62965 19.3156 4.63251 19.4363 4.60659C19.9278 4.5024 20.5825 4.4444 20.924 4.75403C21.0526 4.91287 21.1473 5.09628 21.2025 5.29301C21.2577 5.48975 21.2722 5.69568 21.245 5.89819C21.2306 6.00969 21.2404 6.12297 21.2735 6.23039C21.3067 6.33781 21.3625 6.43687 21.4372 6.5209C21.5138 6.60269 21.606 6.66832 21.7084 6.7139C21.8108 6.75948 21.9213 6.7841 22.0333 6.7863C22.2661 6.76791 22.5001 6.80017 22.7193 6.88085C22.9384 6.96154 23.1375 7.08873 23.3028 7.25369C23.8783 7.88475 23.8999 9.07216 23.8601 9.47222C23.8444 9.61823 23.8698 9.76573 23.9336 9.89802C23.9973 10.0303 24.0969 10.1421 24.2209 10.2207C24.4279 10.3248 24.6092 10.4736 24.7517 10.6564C24.8941 10.8391 24.9942 11.0513 25.0446 11.2774C25.0537 11.8529 24.8464 12.4109 24.4637 12.8408C24.3639 12.9522 24.2978 13.0896 24.2731 13.2371C24.2484 13.3846 24.2661 13.5361 24.3241 13.6739" fill="#1899D5"/>
<path d="M8.24399 16.4483C8.23318 16.4513 7.05904 16.7761 6.76956 16.2139C6.43732 15.5671 7.03741 14.9262 7.07083 14.8913C7.218 14.743 7.30021 14.5423 7.29938 14.3333C7.29855 14.1244 7.21475 13.9243 7.06641 13.7771C6.91807 13.63 6.71735 13.5478 6.5084 13.5486C6.29945 13.5494 6.09939 13.6332 5.95223 13.7816C5.53725 14.18 5.25778 14.6987 5.15321 15.2644C5.04863 15.8301 5.12423 16.4144 5.36934 16.9349C5.58236 17.3223 5.90209 17.6404 6.29055 17.8515C6.67901 18.0626 7.11989 18.1578 7.56084 18.1257C7.95006 18.125 8.33705 18.067 8.70942 17.9537C8.90898 17.8921 9.07588 17.7537 9.1734 17.5689C9.27091 17.3842 9.29106 17.1684 9.2294 16.9688C9.16775 16.7692 9.02935 16.6023 8.84464 16.5048C8.65993 16.4073 8.44405 16.3872 8.24448 16.4488" fill="#1899D5"/>
<path d="M15.4013 5.52318C15.6061 5.35592 15.8685 5.2761 16.1317 5.30104C16.2451 5.28882 16.3598 5.29996 16.4688 5.33377C16.5777 5.36758 16.6786 5.42334 16.7652 5.49763C16.8985 5.6877 16.9611 5.91843 16.9421 6.14982C16.9303 6.25245 16.9388 6.3564 16.9671 6.45574C16.9955 6.55509 17.0431 6.64787 17.1073 6.72879C17.1715 6.80972 17.2511 6.87719 17.3414 6.92737C17.4317 6.97754 17.531 7.00943 17.6336 7.02121C17.6644 7.02497 17.6955 7.02694 17.7265 7.02711C17.9195 7.02718 18.1057 6.95631 18.2498 6.82799C18.3939 6.69967 18.4858 6.52284 18.508 6.33117C18.5427 5.99646 18.5111 5.65818 18.4149 5.33569C18.3188 5.0132 18.16 4.71283 17.9477 4.45176C17.716 4.20609 17.4334 4.01405 17.1197 3.88908C16.806 3.76411 16.4688 3.70924 16.1317 3.72831C15.7868 3.71057 15.4421 3.76492 15.1194 3.88787C14.7967 4.01083 14.5032 4.1997 14.2577 4.44242C13.8353 4.90629 13.6067 5.51427 13.6187 6.14146C13.626 6.35002 13.7159 6.54714 13.8685 6.68945C13.9441 6.75991 14.0328 6.8148 14.1296 6.85098C14.2264 6.88716 14.3294 6.90392 14.4326 6.90031C14.5359 6.89669 14.6374 6.87277 14.7315 6.82991C14.8255 6.78706 14.9101 6.7261 14.9806 6.65052C15.0511 6.57495 15.106 6.48623 15.1421 6.38944C15.1783 6.29265 15.1951 6.18968 15.1915 6.08642C15.194 5.88084 15.268 5.68256 15.4008 5.52564" fill="#1899D5"/>
<path d="M21.2386 11.0538C20.8291 10.7969 20.3571 10.6569 19.8738 10.6488C19.7845 10.3153 19.6184 10.0073 19.3887 9.74944C19.1557 9.50495 18.8725 9.31385 18.5586 9.1893C18.2446 9.06475 17.9075 9.0097 17.5702 9.02795C17.2328 9.01152 16.8957 9.06641 16.5809 9.18903C16.2662 9.31166 15.9808 9.49926 15.7434 9.73961C15.3085 10.2354 15.0811 10.8795 15.1084 11.5384C15.1197 11.747 15.2135 11.9425 15.369 12.0819C15.5245 12.2214 15.729 12.2934 15.9375 12.282C16.1461 12.2707 16.3416 12.177 16.481 12.0215C16.6205 11.866 16.6925 11.6615 16.6811 11.4529C16.676 11.2213 16.7522 10.9953 16.8964 10.814C16.9895 10.7361 17.0971 10.6774 17.213 10.6415C17.329 10.6055 17.4509 10.593 17.5717 10.6046C17.6868 10.5923 17.8032 10.6034 17.9139 10.6372C18.0246 10.6709 18.1274 10.7267 18.216 10.8012C18.3471 10.9776 18.4114 11.1948 18.3974 11.4141C18.3852 11.5384 18.4027 11.6638 18.4486 11.7799C18.4945 11.8961 18.5674 11.9996 18.6613 12.082C18.7556 12.1645 18.8681 12.2235 18.9895 12.2544C19.1109 12.2852 19.2379 12.2869 19.3602 12.2594C19.7024 12.1806 20.0612 12.2207 20.3775 12.373C20.4633 12.436 20.5341 12.5171 20.5851 12.6105C20.636 12.7039 20.6658 12.8074 20.6724 12.9136C20.7041 13.0171 20.7122 13.1265 20.696 13.2336C20.6798 13.3406 20.6399 13.4427 20.579 13.5323C20.3569 13.754 20.0655 13.8928 19.7534 13.9255C19.5448 13.9346 19.3484 14.0261 19.2073 14.18C19.0663 14.3339 18.9921 14.5375 19.0012 14.7461C19.0102 14.9546 19.1018 15.151 19.2556 15.2921C19.4095 15.4332 19.6131 15.5073 19.8217 15.4983C19.8448 15.4983 19.8679 15.4983 19.8915 15.4953C20.6402 15.4237 21.3325 15.0661 21.8245 14.4971C22.0194 14.2349 22.1559 13.9341 22.2249 13.6147C22.2939 13.2954 22.2938 12.965 22.2245 12.6457C22.1814 12.3257 22.0711 12.0183 21.9008 11.7439C21.7306 11.4695 21.5042 11.2341 21.2366 11.0533" fill="#1899D5"/>
<path d="M11.1166 7.55601C10.5267 7.55181 9.94912 7.72463 9.45848 8.05214C8.96784 8.37964 8.5867 8.84677 8.36432 9.39315C7.8665 9.40326 7.39153 9.60398 7.03733 9.95393C6.61701 10.428 6.38636 11.0405 6.38956 11.6741C6.39368 11.8799 6.47834 12.0759 6.62537 12.22C6.7724 12.3641 6.97006 12.4448 7.17592 12.4447H7.18035C7.38799 12.4427 7.58651 12.3591 7.73307 12.212C7.87963 12.0649 7.96248 11.866 7.96376 11.6584C7.96376 11.3974 8.03306 10.96 8.47441 10.96C9.15609 10.96 9.43525 12.0132 9.43672 12.0196C9.47839 12.191 9.57644 12.3434 9.71514 12.4523C9.85383 12.5612 10.0251 12.6203 10.2015 12.6202C10.2647 12.6199 10.3278 12.6122 10.3892 12.5971C10.4898 12.5726 10.5845 12.5285 10.668 12.4674C10.7514 12.4062 10.822 12.3292 10.8757 12.2407C10.9293 12.1522 10.965 12.054 10.9806 11.9517C10.9962 11.8494 10.9915 11.7451 10.9667 11.6446C10.7978 10.9547 10.4156 10.3356 9.87463 9.87529C10.0056 9.63735 10.2012 9.44124 10.4387 9.30951C10.6762 9.17779 10.9461 9.11581 11.2173 9.1307C11.5975 9.10742 11.9714 9.23585 12.257 9.48783C12.5426 9.73982 12.7167 10.0948 12.7409 10.4749C12.767 10.6822 12.8744 10.8707 13.0394 10.9988C13.2044 11.127 13.4136 11.1844 13.6209 11.1583C13.8282 11.1322 14.0167 11.0249 14.1449 10.8598C14.273 10.6948 14.3304 10.4856 14.3043 10.2783C14.2366 9.49704 13.8644 8.77375 13.268 8.2646C12.6715 7.75545 11.8988 7.50128 11.1166 7.55699" fill="#1899D5"/>
</g>
</svg>
