<svg width="15" height="28" viewBox="0 0 15 28" fill="none" xmlns="http://www.w3.org/2000/svg">
<mask id="mask0_1_121" style="mask-type:luminance" maskUnits="userSpaceOnUse" x="0" y="0" width="15" height="28">
<path d="M14.5541 0H0.0368652V28H14.5541V0Z" fill="white"/>
</mask>
<g mask="url(#mask0_1_121)">
<path d="M3.85915 28C3.71572 28.0001 3.57376 27.971 3.44198 27.9144C3.31019 27.8578 3.19134 27.7748 3.0927 27.6707C2.99407 27.5666 2.91771 27.4434 2.86831 27.3088C2.81891 27.1741 2.7975 27.0308 2.80539 26.8876L3.45029 15.135H1.09127C0.811622 15.135 0.543431 15.0239 0.345692 14.8262C0.147954 14.6284 0.0368652 14.3603 0.0368652 14.0806V1.0544C0.0368652 0.774757 0.147954 0.506566 0.345692 0.308827C0.543431 0.111088 0.811622 3.70515e-10 1.09127 3.70515e-10L10.913 3.70515e-10C11.0768 -4.3421e-06 11.2384 0.038162 11.3849 0.111472C11.5314 0.184782 11.6588 0.291219 11.757 0.422341C11.8552 0.553463 11.9215 0.705662 11.9506 0.866868C11.9798 1.02807 11.9709 1.19385 11.9248 1.35105L9.78895 8.64158H13.4997C13.6836 8.64192 13.8642 8.69033 14.0236 8.782C14.183 8.87367 14.3157 9.00541 14.4085 9.16418C14.5013 9.32294 14.551 9.50321 14.5527 9.6871C14.5544 9.87099 14.5079 10.0521 14.418 10.2125L4.77941 27.4602C4.68783 27.6239 4.55429 27.7601 4.39254 27.855C4.23079 27.9499 4.04667 27.9999 3.85915 28ZM2.14631 13.0269H4.56208C4.70536 13.0272 4.84707 13.0566 4.9786 13.1134C5.11014 13.1702 5.22876 13.2531 5.32726 13.3572C5.42575 13.4612 5.50207 13.5842 5.55157 13.7187C5.60107 13.8531 5.62271 13.9962 5.6152 14.1393L5.16055 22.4584L11.7011 10.7523H8.37986C8.21572 10.7523 8.05384 10.7141 7.9071 10.6405C7.76035 10.567 7.63279 10.4602 7.53455 10.3287C7.4363 10.1973 7.3701 10.0447 7.34119 9.88309C7.31228 9.72152 7.32147 9.55543 7.36802 9.39804L9.50455 2.10945H2.14631V13.0269Z" fill="#1899D5"/>
</g>
</svg>
