<svg width="25" height="28" viewBox="0 0 25 28" fill="none" xmlns="http://www.w3.org/2000/svg">
<path d="M7.80571 16.086C7.01777 16.3449 6.25191 16.6666 5.51552 17.0482C5.43113 17.0916 5.35612 17.1511 5.29475 17.2235C5.23339 17.2959 5.18688 17.3796 5.15788 17.47C5.09931 17.6524 5.11562 17.8507 5.20322 18.0211C5.2466 18.1055 5.30617 18.1805 5.37854 18.2419C5.4509 18.3032 5.53465 18.3497 5.62499 18.3787C5.80744 18.4373 6.00569 18.421 6.17611 18.3334C13.2247 14.7142 16.2436 19.4367 16.3711 19.6429C16.4718 19.8034 16.6316 19.9179 16.816 19.9616C17.0004 20.0053 17.1946 19.9748 17.3567 19.8766C17.5187 19.7784 17.6357 19.6204 17.6823 19.4367C17.7289 19.253 17.7013 19.0583 17.6057 18.8947C16.6909 17.5979 15.4111 16.6025 13.9289 16.0353C12.4468 15.4681 10.8294 15.3547 9.28256 15.7095C8.93621 15.1258 6.41253 11.3101 0.462313 13.3288C0.288347 13.396 0.147096 13.5279 0.068081 13.6968C-0.0109337 13.8658 -0.0215962 14.0587 0.038322 14.2353C0.0982403 14.4119 0.224102 14.5586 0.3896 14.6446C0.555099 14.7305 0.747426 14.7492 0.926383 14.6967C5.15069 13.2636 7.16263 15.2279 7.80571 16.086Z" fill="#1899D5"/>
<path d="M18.9522 2.3585C18.9309 2.32809 18.9071 2.29945 18.8812 2.27289C18.706 1.99756 17.1981 -0.0562202 11.6565 0.00118046C11.544 0.00229647 11.4334 0.0296124 11.3335 0.0809577C10.4158 0.590163 9.6779 1.3704 9.22059 2.31497C8.76328 3.25953 8.60893 4.3223 8.77863 5.35793C8.79653 5.4723 8.84157 5.58073 8.90997 5.67412L9.66007 6.69858C9.72761 6.78965 9.81566 6.86354 9.91707 6.91424C10.0185 6.96495 10.1304 6.99106 10.2438 6.99045C10.2718 6.99035 10.2997 6.98873 10.3275 6.98558L14.3047 6.52346C14.4381 6.50806 14.5647 6.45561 14.6699 6.37205C14.7751 6.28849 14.8548 6.17715 14.9001 6.05063C14.9234 5.98545 14.9497 5.91443 14.9769 5.8434C15.575 6.38101 16.0037 7.08112 16.2106 7.85827C16.2174 7.89135 16.2242 7.92637 16.23 7.95556C16.2427 8.01977 16.2543 8.08301 16.2621 8.15013C16.2677 8.19673 16.2778 8.24267 16.2923 8.28731C16.5126 9.23163 16.5848 10.2045 16.5063 11.171C16.3855 11.4967 16.2415 11.8134 16.0753 12.1186C15.5738 13.0503 15.1855 14.0386 14.9186 15.0625C15.3782 15.2722 15.8206 15.5178 16.2417 15.7971C16.4651 14.7374 16.8445 13.7168 17.3673 12.7685C17.5736 12.3893 17.7486 11.994 17.8908 11.5864C18.047 10.2655 17.9623 8.92713 17.6407 7.63645C17.6321 7.59699 17.6214 7.55802 17.6086 7.5197C17.3055 6.33737 16.6188 5.28897 15.656 4.53875C15.6426 4.52391 15.6284 4.50994 15.6132 4.49692L15.6074 4.50276C15.5801 4.48427 15.5607 4.47454 15.5354 4.45995C15.6031 4.30017 15.6821 4.14541 15.7718 3.99685C15.828 3.91863 15.8681 3.82996 15.8896 3.73604C15.9111 3.64212 15.9136 3.54486 15.8969 3.44996C15.8803 3.35506 15.8448 3.26445 15.7927 3.18345C15.7405 3.10245 15.6727 3.03269 15.5932 2.97828C15.5136 2.92387 15.4241 2.8859 15.3297 2.86661C15.2353 2.84731 15.138 2.84708 15.0435 2.86593C14.949 2.88478 14.8593 2.92233 14.7795 2.97637C14.6997 3.0304 14.6316 3.09984 14.579 3.1806C14.2282 3.80784 13.9326 4.46442 13.6956 5.14292L10.5775 5.50484L10.1884 4.9678C10.1032 4.28146 10.216 3.58507 10.5135 2.96072C10.811 2.33638 11.2808 1.81012 11.8676 1.44398H11.924C16.2884 1.44398 17.5512 2.90332 17.6641 3.04926L19.138 5.67607C21.7307 11.0789 22.9217 17.0474 22.6015 23.0315C20.7657 24.0112 11.6496 28.4554 4.6234 24.1863C4.80631 23.9694 4.92111 23.8478 4.92695 23.8429C5.0529 23.7045 5.12027 23.5226 5.11489 23.3356C5.10951 23.1485 5.03179 22.9708 4.89809 22.8399C4.76438 22.709 4.58511 22.635 4.39798 22.6335C4.21085 22.6321 4.03044 22.7032 3.89471 22.8321C2.78332 24.0534 1.87243 25.443 1.1959 26.9494C1.15172 27.0362 1.12554 27.1311 1.11896 27.2283C1.11238 27.3255 1.12552 27.4231 1.15759 27.5151C1.18967 27.6071 1.24002 27.6917 1.30561 27.7637C1.3712 27.8358 1.45069 27.8938 1.53929 27.9344C1.62789 27.975 1.72377 27.9972 1.82118 27.9998C1.91859 28.0023 2.01551 27.9852 2.10612 27.9493C2.19673 27.9134 2.27915 27.8596 2.34844 27.7911C2.41773 27.7226 2.47245 27.6408 2.50931 27.5506C2.86218 26.7824 3.27737 26.0445 3.75072 25.3441C6.11245 26.783 8.83389 27.5225 11.599 27.4767C15.8335 27.3281 19.9705 26.1661 23.6629 24.0881C23.7638 24.0286 23.8487 23.9454 23.9103 23.8457C23.9718 23.7461 24.0081 23.6329 24.0161 23.516C24.5677 16.1077 22.7996 8.71145 18.957 2.35364" fill="#1899D5"/>
</svg>
