<svg width="27" height="28" viewBox="0 0 27 28" fill="none" xmlns="http://www.w3.org/2000/svg">
<path d="M21.8272 15.447C21.8654 15.6077 21.9568 15.7507 22.0865 15.8529C22.2162 15.955 22.3767 16.0103 22.5418 16.0097C22.6001 16.0101 22.6582 16.003 22.7148 15.9887C22.8089 15.9665 22.8977 15.9258 22.9761 15.8691C23.0544 15.8123 23.1207 15.7406 23.1712 15.6581C23.2216 15.5756 23.2552 15.4838 23.27 15.3882C23.2848 15.2927 23.2805 15.1951 23.2574 15.1012C22.6626 12.6444 21.3313 11.6782 20.3193 11.3003C20.2288 11.2664 20.1326 11.2508 20.036 11.2541C19.9395 11.2575 19.8446 11.2799 19.7567 11.3199C19.6688 11.36 19.5896 11.417 19.5238 11.4876C19.4579 11.5583 19.4066 11.6412 19.3727 11.7317C19.3389 11.8222 19.3232 11.9184 19.3266 12.015C19.33 12.1115 19.3524 12.2064 19.3924 12.2943C19.4325 12.3822 19.4895 12.4614 19.5601 12.5272C19.6308 12.5931 19.7137 12.6444 19.8042 12.6782C20.3471 12.9323 20.8172 13.3192 21.1708 13.8032C21.5244 14.2872 21.7502 14.8526 21.8272 15.447Z" fill="#1899D5"/>
<path d="M25.8624 13.9473C25.2813 11.5491 24.1541 9.88751 22.5098 9.00637C20.9291 8.24018 19.113 8.1159 17.4426 8.65958C16.5426 8.85506 15.6283 8.97746 14.7086 9.02558C14.6589 9.02408 14.6092 9.02776 14.5603 9.03656C14.5234 9.0302 14.4861 9.02653 14.4487 9.02558H14.4405C13.5205 8.98004 12.606 8.85762 11.7065 8.65958C10.0358 8.11546 8.21928 8.23975 6.6383 9.00637C5.34914 9.73513 4.35688 10.8935 3.83475 12.2793C3.81553 12.2793 3.7954 12.2738 3.77527 12.2738H2.62055C1.94593 12.2546 1.29122 12.5037 0.799974 12.9665C0.308729 13.4292 0.0210437 14.0679 0 14.7425L0 20.1135C0.020569 20.7884 0.308047 21.4276 0.799344 21.8907C1.29064 22.3539 1.94562 22.6032 2.62055 22.584H14.3325C14.5266 22.584 14.7128 22.5069 14.8501 22.3696C14.9874 22.2323 15.0645 22.0461 15.0645 21.852V16.4737C15.0645 16.2795 14.9874 16.0933 14.8501 15.9561C14.7128 15.8188 14.5266 15.7417 14.3325 15.7417H4.6006C4.60707 15.258 4.64589 14.7753 4.71681 14.2969C4.84164 13.4855 5.13849 12.7102 5.58745 12.023C6.03642 11.3357 6.62713 10.7524 7.31997 10.3121C8.55644 9.73437 9.96583 9.64642 11.2645 10.0659C11.3025 10.0802 11.3417 10.0909 11.3816 10.098C12.3963 10.3247 13.4298 10.4573 14.4688 10.4942C14.5039 10.4926 14.5388 10.4883 14.5731 10.4813C14.6075 10.4883 14.6424 10.4926 14.6775 10.4942C15.7168 10.4572 16.7506 10.3246 17.7656 10.098C17.8048 10.0909 17.8434 10.0805 17.8809 10.0668C19.1796 9.64617 20.5896 9.7338 21.8263 10.3121C22.5149 10.7473 23.1027 11.3243 23.5507 12.0046C23.9986 12.685 24.2963 13.453 24.424 14.2575C24.4368 14.3243 25.6254 21.0386 20.4657 25.6648C20.442 25.6862 20.4197 25.7091 20.3989 25.7334C19.9483 26.1674 19.37 26.445 18.7496 26.5252C18.1291 26.6055 17.4993 26.4841 16.9531 26.179C16.1958 25.8741 15.3956 25.6889 14.5814 25.63H14.5667C13.7423 25.69 12.9324 25.8793 12.1667 26.1909C11.6229 26.4896 10.9977 26.6063 10.3827 26.524C9.76777 26.4417 9.19532 26.1646 8.7492 25.7334C8.72847 25.7091 8.70616 25.6862 8.6824 25.6648C8.06711 25.1141 7.51084 24.5008 7.0226 23.8348H5.23835C5.90821 24.9091 6.72601 25.8837 7.66767 26.7298C8.0631 27.1358 8.53655 27.4576 9.05954 27.6758C9.58253 27.8941 10.1443 28.0043 10.7109 27.9999C11.4107 27.9922 12.1008 27.8362 12.7358 27.5424C13.3209 27.3055 13.9374 27.1554 14.5658 27.0968H14.5805C15.1988 27.1539 15.8056 27.2999 16.3821 27.5305C17.0275 27.8262 17.7282 27.9821 18.4381 27.988C19.0042 27.9934 19.5655 27.8841 20.0882 27.6668C20.6109 27.4495 21.0842 27.1286 21.4795 26.7234C27.234 21.5327 25.9273 14.2795 25.8615 13.9409M13.6005 21.1044H11.9197V19.6954C11.9197 19.5002 11.8422 19.3131 11.7042 19.1752C11.5662 19.0372 11.3791 18.9597 11.184 18.9597C10.9889 18.9597 10.8018 19.0372 10.6638 19.1752C10.5258 19.3131 10.4483 19.5002 10.4483 19.6954V21.1109H8.52045V19.6954C8.52045 19.5002 8.44294 19.3131 8.30498 19.1752C8.16701 19.0372 7.9799 18.9597 7.78479 18.9597C7.58968 18.9597 7.40256 19.0372 7.2646 19.1752C7.12664 19.3131 7.04913 19.5002 7.04913 19.6954V21.1109H5.12398V19.6954C5.12398 19.5002 5.04647 19.3131 4.90851 19.1752C4.77055 19.0372 4.58343 18.9597 4.38832 18.9597C4.19321 18.9597 4.0061 19.0372 3.86813 19.1752C3.73017 19.3131 3.65267 19.5002 3.65267 19.6954V21.1109H2.62055C2.33726 21.1253 2.05939 21.0295 1.84515 20.8435C1.63092 20.6576 1.49695 20.396 1.47131 20.1135V16.9568C1.83145 17.1223 2.22328 17.2075 2.61963 17.2066H13.5996L13.6005 21.1044ZM2.62055 15.7316C2.33856 15.7461 2.0618 15.6515 1.84779 15.4673C1.63377 15.2831 1.49894 15.0235 1.47131 14.7425C1.49761 14.4606 1.63174 14.1999 1.8457 14.0145C2.05966 13.8292 2.33693 13.7337 2.61963 13.7479H3.3434C3.32235 13.8266 3.29765 13.9007 3.27843 13.9821C3.18163 14.5626 3.12811 15.1495 3.11831 15.738L2.62055 15.7316Z" fill="#1899D5"/>
<path d="M11.3359 3.88972C11.3497 3.89521 12.7359 4.48995 13.7909 7.02998C13.8561 7.18203 13.9709 7.30749 14.1166 7.38592C14.2465 7.52238 14.4235 7.60419 14.6116 7.61467C14.6116 7.61467 14.6921 7.61924 14.8358 7.61924C15.6254 7.61924 18.3128 7.48016 19.7292 5.68768C20.8372 4.28499 21.5235 1.23531 21.5967 0.892188C21.6233 0.773775 21.62 0.650617 21.5871 0.533796C21.5542 0.416975 21.4929 0.310156 21.4085 0.222951C21.3241 0.135745 21.2193 0.0708895 21.1036 0.0342192C20.988 -0.00245106 20.865 -0.00978535 20.7458 0.0128763C20.3798 0.077841 17.1699 0.673504 15.8048 1.66627C14.9216 2.41189 14.3341 3.44881 14.1486 4.58969C13.6065 3.68872 12.8109 2.96754 11.8611 2.51631C11.6809 2.44948 11.4815 2.45626 11.3062 2.53519C11.1309 2.61411 10.9937 2.75885 10.9242 2.93812C10.8547 3.11885 10.8586 3.31961 10.9352 3.49745C11.0118 3.67529 11.155 3.81609 11.3341 3.88972M16.6704 2.85668C17.6709 2.3064 18.7515 1.91645 19.8728 1.70104C19.6098 2.78922 19.1712 3.8273 18.5745 4.77452C17.7318 5.61419 16.5979 6.09689 15.4086 6.12231C15.4928 5.06183 15.802 3.48895 16.6722 2.8576" fill="#1899D5"/>
</svg>
