<svg id="Grupo_2997" data-name="Grupo 2997" xmlns="http://www.w3.org/2000/svg" width="57.359" height="66.664" viewBox="0 0 57.359 66.664">
  <path id="Caminho_83249" data-name="Caminho 83249" d="M130.438,57.507H112.953a25.1,25.1,0,0,0,14.061-17.7,24.558,24.558,0,0,0-.013-9.87,1.829,1.829,0,0,0-.078-.38,24.851,24.851,0,0,0-10.959-15.586l.4-.783a1.3,1.3,0,0,0-.582-1.753l-1.664-.835,1.664-3.269,1.691.838a1.4,1.4,0,0,0,.6.143,1.3,1.3,0,0,0,.594-2.471L107.27.135A1.326,1.326,0,0,0,105.5.71a1.3,1.3,0,0,0,.582,1.753l1.651.823-1.666,3.27L104.4,5.718a1.346,1.346,0,0,0-1-.077,1.31,1.31,0,0,0-.769.653L96.154,18.976a1.3,1.3,0,0,0,.582,1.753l1.667.835-2.286,4.473a1.287,1.287,0,0,0,.582,1.751l5.694,2.852a1.4,1.4,0,0,0,.6.143,1.3,1.3,0,0,0,1.176-.718l2.286-4.473,1.667.838a1.313,1.313,0,0,0,1,.077,1.3,1.3,0,0,0,.766-.653L112.357,21a16.971,16.971,0,0,1,7.151,15.154,1.414,1.414,0,0,0-.053.338v.093c-.053.535-.131,1.058-.238,1.6a17,17,0,0,1-11.538,12.852,9.293,9.293,0,0,0-6.582-2.681H85.238a1.308,1.308,0,1,0,0,2.616h9.4a8.933,8.933,0,0,0-2.789,6.536H75.72a1.244,1.244,0,0,0-1.32,1.216v6.538a1.4,1.4,0,0,0,1.32,1.4h54.718a1.4,1.4,0,0,0,1.322-1.4V58.723A1.244,1.244,0,0,0,130.438,57.507ZM124.861,35.28h-2.642a19.018,19.018,0,0,0-.344-3.922h2.7A21.269,21.269,0,0,1,124.861,35.28Zm-22.454-7.529-3.345-1.673,1.691-3.309,3.345,1.673Zm5.722-4.225-9.04-4.51L104.374,8.66l9.042,4.513Zm3.634-14.1L108.42,7.745l1.664-3.267,3.345,1.673Zm1.811,9.282,1.2-2.341a21.834,21.834,0,0,1,9.2,12.382H121.2A19.535,19.535,0,0,0,113.573,18.7Zm3.2,29.666a19.478,19.478,0,0,0,5.049-9.61c.066-.3.106-.6.159-.863h2.67c-.068.393-.147.9-.24,1.373a22.263,22.263,0,0,1-14.233,16.474,9,9,0,0,0-.872-2.487A19.976,19.976,0,0,0,116.771,48.369ZM101.1,51.009a6.536,6.536,0,0,1,6.609,6.5H94.49A6.534,6.534,0,0,1,101.1,51.009Zm28.019,13.037H77.043V60.124h52.073v3.922Z" transform="translate(-74.4 0.005)" fill="#fff"/>
</svg>
