<svg width="29" height="16" viewBox="0 0 29 16" fill="none" xmlns="http://www.w3.org/2000/svg">
<mask id="mask0_2_306" style="mask-type:luminance" maskUnits="userSpaceOnUse" x="0" y="0" width="29" height="16">
<path d="M28.146 0H0V15.948H28.146V0Z" fill="white"/>
</mask>
<g mask="url(#mask0_2_306)">
<path d="M26.176 4.865H24.924V1.988C24.9235 1.46091 24.7139 0.955564 24.3411 0.582856C23.9684 0.210149 23.4631 0.000529471 22.936 0L1.988 0C1.46091 0.000529471 0.955564 0.210149 0.582856 0.582856C0.210149 0.955564 0.000529471 1.46091 0 1.988L0 13.96C0.000529471 14.4871 0.210149 14.9924 0.582856 15.3651C0.955564 15.7379 1.46091 15.9475 1.988 15.948H22.936C23.4631 15.9475 23.9684 15.7379 24.3411 15.3651C24.7139 14.9924 24.9235 14.4871 24.924 13.96V11.082H26.176C26.7034 11.0762 27.2071 10.8614 27.5764 10.4848C27.9457 10.1082 28.1505 9.60046 28.146 9.073V6.873C28.1505 6.34554 27.9457 5.83782 27.5764 5.4612C27.2071 5.08457 26.7034 4.87081 26.176 4.865ZM23.351 13.96C23.351 14.0701 23.3073 14.1756 23.2295 14.2534C23.1516 14.3313 23.0461 14.375 22.936 14.375H1.988C1.87794 14.375 1.77238 14.3313 1.69455 14.2534C1.61672 14.1756 1.573 14.0701 1.573 13.96V1.988C1.573 1.87794 1.61672 1.77238 1.69455 1.69455C1.77238 1.61672 1.87794 1.573 1.988 1.573H22.936C23.0461 1.573 23.1516 1.61672 23.2295 1.69455C23.3073 1.77238 23.351 1.87794 23.351 1.988V13.96ZM26.573 9.073C26.5776 9.18382 26.5381 9.29194 26.4631 9.37367C26.3881 9.4554 26.2838 9.50407 26.173 9.509H24.924V6.438H26.176C26.2868 6.44293 26.3911 6.4916 26.4661 6.57333C26.5411 6.65506 26.5806 6.76318 26.576 6.874L26.573 9.073Z" fill="#1899D5"/>
<path d="M3.36597 12.993H8.34797V2.953H3.36597V12.993ZM4.93597 4.527H6.77497V11.42H4.93597V4.527Z" fill="#1899D5"/>
<path d="M9.97095 12.993H14.9529V2.953H9.97095V12.993ZM11.5439 4.527H13.3789V11.42H11.5439V4.527Z" fill="#1899D5"/>
<path d="M16.655 12.993H21.637V2.953H16.655V12.993ZM18.228 4.527H20.064V11.42H18.228V4.527Z" fill="#1899D5"/>
</g>
</svg>
