<svg xmlns="http://www.w3.org/2000/svg" xmlns:xlink="http://www.w3.org/1999/xlink" width="65.086" height="66.664" viewBox="0 0 65.086 66.664">
  <defs>
    <clipPath id="clip-path">
      <rect id="Retângulo_1000" data-name="Retângulo 1000" width="65.086" height="66.664" fill="#fff"/>
    </clipPath>
  </defs>
  <g id="Grupo_2998" data-name="Grupo 2998" clip-path="url(#clip-path)">
    <path id="Caminho_83319" data-name="Caminho 83319" d="M65.086,37.256A5.6,5.6,0,0,0,55.1,33.749l-7.041-4.064V19.811a5.612,5.612,0,1,0-5.618-9.692l-4.6-2.657a5.568,5.568,0,0,0,.332-1.836,5.627,5.627,0,0,0-11.253,0,5.563,5.563,0,0,0,.334,1.836l-4.865,2.809a5.613,5.613,0,1,0-5.353,9.759v9.654L9.991,33.749a5.61,5.61,0,1,0-6.417,8.733v11.7A2.052,2.052,0,0,0,4.6,55.956l8.862,5.116a5.623,5.623,0,0,0,11.246,0l7.836-4.524,7.835,4.524a5.623,5.623,0,0,0,11.245,0l8.863-5.116a2.055,2.055,0,0,0,1.026-1.777v-11.7a5.626,5.626,0,0,0,3.573-5.226M59.46,35.734a1.523,1.523,0,1,1-1.524,1.523,1.524,1.524,0,0,1,1.524-1.523M45.54,13.282A1.523,1.523,0,1,1,44.016,14.8a1.524,1.524,0,0,1,1.524-1.523m-13-9.178A1.523,1.523,0,1,1,31.02,5.627,1.524,1.524,0,0,1,32.544,4.1M21.136,20.03A5.622,5.622,0,0,0,24.71,14.8a5.686,5.686,0,0,0-.108-1.075l5.391-3.114h0a5.408,5.408,0,0,0,5.094,0L40.081,13.5a5.521,5.521,0,0,0,3.869,6.677V28.9l-7.494,4.327a5.591,5.591,0,0,0-7.826,0L21.136,28.9Zm-2.052-6.748A1.523,1.523,0,1,1,17.562,14.8a1.524,1.524,0,0,1,1.521-1.523M5.625,38.779a1.523,1.523,0,1,1,1.523-1.523,1.524,1.524,0,0,1-1.523,1.523M19.084,62.56a1.522,1.522,0,1,1,1.523-1.521,1.523,1.523,0,0,1-1.523,1.521m11.408-9.566-7.307,4.219a5.57,5.57,0,0,0-8.2,0L7.677,52.994V42.482A5.612,5.612,0,0,0,11.2,37.79l7.885-4.553L26.97,37.79a5.61,5.61,0,0,0,3.521,4.692Zm2.052-14.215a1.523,1.523,0,1,1,1.521-1.523,1.524,1.524,0,0,1-1.521,1.523M46,62.56a1.522,1.522,0,1,1,1.521-1.521A1.524,1.524,0,0,1,46,62.56m4.1-5.348a5.57,5.57,0,0,0-8.2,0L34.6,52.994V42.482a5.624,5.624,0,0,0,3.573-5.226c0-.09-.022-.174-.026-.264l7.182-4.145,8.562,4.943a5.609,5.609,0,0,0,3.521,4.692V52.994Z" transform="translate(0 0)" fill="#fff"/>
  </g>
</svg>
