<svg width="35" height="28" viewBox="0 0 35 28" fill="none" xmlns="http://www.w3.org/2000/svg">
<mask id="mask0_2_283" style="mask-type:luminance" maskUnits="userSpaceOnUse" x="0" y="0" width="35" height="28">
<path d="M34.7467 0H0V28H34.7467V0Z" fill="white"/>
</mask>
<g mask="url(#mask0_2_283)">
<path d="M30.4054 24.2092L25.627 22.0282C25.4443 21.4323 25.076 20.9103 24.5758 20.5383C24.0756 20.1664 23.4697 19.9639 22.8464 19.9605C22.705 19.9606 22.5639 19.9708 22.424 19.991C22.0457 20.0456 21.6819 20.1743 21.3534 20.3696C21.0249 20.565 20.7382 20.8232 20.5096 21.1294C20.2809 21.4357 20.1149 21.784 20.021 22.1545C19.9272 22.525 19.9072 22.9104 19.9624 23.2885C20.065 23.9798 20.4118 24.6115 20.9399 25.0692C21.468 25.5269 22.1426 25.7803 22.8415 25.7836C22.9825 25.7838 23.1234 25.7736 23.2629 25.7531C23.4729 25.7229 23.6787 25.6687 23.8763 25.5916L28.7621 27.8208C29.0203 27.9392 29.3011 28.0003 29.5852 28C30.0383 27.9998 30.4777 27.8445 30.8304 27.56C31.1831 27.2756 31.4278 26.879 31.524 26.4362C31.6201 25.9934 31.5619 25.5311 31.3589 25.1259C31.156 24.7208 30.8206 24.3973 30.4084 24.2092M29.9594 26.1863C29.934 26.2422 29.8962 26.2916 29.849 26.3308C29.8017 26.3701 29.7462 26.3981 29.6866 26.4128C29.5959 26.4364 29.4998 26.4277 29.4149 26.3882L24.1963 24.0083C24.0938 23.9614 23.9822 23.9372 23.8694 23.9374C23.7361 23.9375 23.605 23.9713 23.4884 24.0359C23.2402 24.173 22.9547 24.2274 22.6734 24.1912C22.3922 24.155 22.1298 24.0301 21.9244 23.8346C21.719 23.639 21.5813 23.3831 21.5313 23.104C21.4813 22.8248 21.5217 22.537 21.6464 22.2824C21.7712 22.0277 21.9739 21.8195 22.2251 21.6879C22.4763 21.5564 22.763 21.5083 23.0433 21.5508C23.3237 21.5933 23.5833 21.724 23.7842 21.9241C23.9852 22.1242 24.1171 22.3831 24.1609 22.6633C24.1653 22.7058 24.1729 22.7479 24.1835 22.7893C24.2141 22.9006 24.2688 23.0037 24.3436 23.0915C24.4185 23.1793 24.5117 23.2496 24.6168 23.2974L29.7516 25.6408C29.8008 25.6631 29.8451 25.6949 29.882 25.7344C29.9188 25.7739 29.9476 25.8202 29.9665 25.8708C29.9854 25.9214 29.9942 25.9752 29.9923 26.0292C29.9904 26.0831 29.9779 26.1362 29.9554 26.1853" fill="#1899D5"/>
<path d="M34.0308 20.1505L29.9938 16.79C29.9782 16.2329 29.8031 15.692 29.4891 15.2315C29.1752 14.7711 28.7358 14.4104 28.2229 14.1923C27.7101 13.9742 27.1454 13.9078 26.596 14.0011C26.0466 14.0944 25.5354 14.3434 25.1234 14.7186C24.7113 15.0938 24.4155 15.5793 24.2712 16.1176C24.1269 16.6559 24.1401 17.2243 24.3092 17.7553C24.4784 18.2863 24.7964 18.7576 25.2254 19.1132C25.6545 19.4689 26.1766 19.6939 26.7298 19.7616C26.9405 19.7852 27.1532 19.7852 27.3639 19.7616L31.4915 23.197C31.8389 23.4866 32.275 23.6485 32.7272 23.6558H32.7597C33.1676 23.6559 33.5656 23.5302 33.8995 23.2959C34.2334 23.0616 34.487 22.7301 34.6257 22.3466C34.7644 21.963 34.7816 21.546 34.6748 21.1523C34.568 20.7586 34.3424 20.4075 34.0289 20.1466M33.0738 21.9357C33.0354 21.9816 32.9874 22.0185 32.9331 22.0437C32.8788 22.0689 32.8195 22.0818 32.7597 22.0814V22.8691L32.7479 22.0814C32.6549 22.0794 32.5656 22.0445 32.4958 21.9829L28.0925 18.327C27.9513 18.209 27.7733 18.1443 27.5894 18.1438C27.5253 18.1438 27.4615 18.1518 27.3993 18.1675C27.1251 18.2329 26.8371 18.2094 26.577 18.1005C26.3169 17.9916 26.0981 17.8029 25.9523 17.5616C25.8064 17.3202 25.741 17.0388 25.7655 16.7579C25.79 16.477 25.9032 16.2111 26.0886 15.9987C26.2741 15.7863 26.5222 15.6383 26.7973 15.5761C27.0723 15.5138 27.36 15.5406 27.6188 15.6526C27.8776 15.7645 28.0941 15.9558 28.2372 16.1988C28.3802 16.4418 28.4423 16.724 28.4145 17.0046C28.4062 17.0518 28.4019 17.0995 28.4017 17.1474C28.4018 17.2628 28.4272 17.3767 28.4763 17.4812C28.5253 17.5857 28.5966 17.6781 28.6853 17.7519L33.0245 21.3636C33.0661 21.3981 33.1004 21.4405 33.1254 21.4884C33.1505 21.5363 33.1659 21.5886 33.1706 21.6424C33.1754 21.6962 33.1695 21.7504 33.1532 21.802C33.1369 21.8535 33.1106 21.9012 33.0757 21.9425" fill="#1899D5"/>
<path d="M18.8241 16.7742C19.9461 15.599 20.6514 14.0881 20.8318 12.4733C21.9878 13.3467 22.9074 14.097 23.4726 14.5716C23.7633 14.1276 24.1299 13.7383 24.5557 13.4215C23.8487 12.8229 22.5628 11.7683 20.9322 10.575C20.9088 9.76087 20.8252 8.94962 20.6821 8.14784C20.6329 7.92728 19.4415 2.71858 16.0032 0.748326C15.2761 0.335965 14.4684 0.0860011 13.6355 0.0156316C12.8026 -0.0547379 11.9644 0.0561575 11.1785 0.340688C9.10751 1.04986 7.27997 2.3315 5.90773 4.037C5.6154 4.05391 5.32438 4.08877 5.03633 4.14137C4.10868 4.30266 3.23309 4.68354 2.48267 5.25223C1.73225 5.82091 1.12878 6.56088 0.722652 7.41035C0.242626 8.50001 0.00353344 9.68046 0.0217165 10.871C0.0398996 12.0616 0.31493 13.2342 0.828008 14.3087C2.21831 16.8865 5.24212 18.5308 9.80983 19.1954C11.2595 19.38 12.729 19.3408 14.1668 19.0792C15.4468 19.8788 16.9366 20.7531 18.6824 21.7003C18.834 21.193 19.0791 20.7185 19.4051 20.3012C18.2275 19.6592 17.1644 19.054 16.2158 18.4855C17.193 18.0994 18.0802 17.5162 18.8222 16.7722M11.6619 1.83635C12.2386 1.61942 12.8558 1.53151 13.47 1.5788C14.0843 1.6261 14.6808 1.80744 15.2174 2.11007C18.0522 3.73176 19.1353 8.44225 19.1382 8.45209C19.1953 8.77604 19.2367 9.09309 19.2761 9.40128C15.9077 7.09921 11.6186 4.67406 7.89176 4.12955C8.98198 3.11955 10.2646 2.33963 11.6629 1.83635M14.4583 17.3935C13.5616 17.6377 12.6355 17.7567 11.7062 17.747C11.0932 17.7488 10.4808 17.7064 9.87383 17.62V17.6082C5.92447 17.0066 3.34867 15.6498 2.22028 13.5712C1.8266 12.7165 1.61539 11.7891 1.60013 10.8482C1.58487 9.90728 1.7659 8.97352 2.13166 8.10649C2.40767 7.52002 2.81203 7.00313 3.31483 6.59407C3.81762 6.18502 4.40597 5.89428 5.03633 5.74337C4.76862 6.68061 4.70304 7.66402 4.84392 8.6285C4.98481 9.59299 5.32896 10.5166 5.85357 11.3381C5.86539 11.3587 5.8772 11.3784 5.89099 11.3981C5.97961 11.5271 6.06428 11.6758 6.16176 11.8451C7.17076 13.6009 8.54349 15.1207 10.1879 16.3026C11.0809 16.4144 11.9836 16.4253 12.8789 16.3351C9.01326 13.6273 8.06407 11.9918 7.5245 11.0584C7.41323 10.8615 7.31378 10.6941 7.21237 10.5425C6.7763 9.87789 6.49659 9.12309 6.39426 8.33484C6.29193 7.54658 6.36966 6.74538 6.62159 5.9915C6.67476 5.85463 6.73482 5.72171 6.80079 5.59075C10.6852 5.75912 15.7196 8.78884 19.3549 11.3833C19.3614 12.9664 18.7728 14.4942 17.7056 15.6635C16.8069 16.5302 15.685 17.1302 14.4652 17.3965H14.4593" fill="#1899D5"/>
</g>
</svg>
