<svg xmlns="http://www.w3.org/2000/svg" width="29.242" height="25.701" viewBox="0 0 29.242 25.701"><path d="M9.421,17.134H24.958a.857.857,0,0,0,.824-.621L29.209,4.519a.857.857,0,0,0-.824-1.092H7.445L6.833.671A.857.857,0,0,0,6,0H.857a.857.857,0,1,0,0,1.713H5.31L8.4,15.633a2.57,2.57,0,0,0,1.021,4.928H24.958a.857.857,0,0,0,0-1.713H9.423a.857.857,0,0,1,0-1.713ZM27.249,5.14l-2.937,10.28h-14.2L7.826,5.14Zm0,0" transform="translate(0 0)" fill="#9a9a9a"/><path d="M150,362.57a2.57,2.57,0,1,0,2.57-2.57A2.573,2.573,0,0,0,150,362.57Zm2.57-.857a.857.857,0,1,1-.857.857A.858.858,0,0,1,152.57,361.713Zm0,0" transform="translate(-141.433 -339.439)" fill="#9a9a9a"/><path d="M362,362.57a2.57,2.57,0,1,0,2.57-2.57A2.573,2.573,0,0,0,362,362.57Zm2.57-.857a.857.857,0,1,1-.857.857A.858.858,0,0,1,364.57,361.713Zm0,0" transform="translate(-341.325 -339.439)" fill="#9a9a9a"/></svg>