<svg width="18" height="28" viewBox="0 0 18 28" fill="none" xmlns="http://www.w3.org/2000/svg">
<mask id="mask0_1_137" style="mask-type:luminance" maskUnits="userSpaceOnUse" x="0" y="0" width="18" height="28">
<path d="M17.4724 0H0.231506V28H17.4724V0Z" fill="white"/>
</mask>
<g mask="url(#mask0_1_137)">
<path d="M13.9453 5.72679L13.9393 5.29675H14.1624C14.504 5.29648 14.8316 5.16072 15.0732 4.91924C15.3149 4.67776 15.4509 4.35029 15.4515 4.00865V1.28911C15.4512 0.947298 15.3153 0.619563 15.0736 0.377866C14.8319 0.13617 14.5042 0.000267353 14.1624 0L3.54463 0C3.20282 0.000267353 2.87508 0.13617 2.63338 0.377866C2.39169 0.619563 2.25579 0.947298 2.25552 1.28911V4.00865C2.25579 4.35046 2.39169 4.6782 2.63338 4.91989C2.87508 5.16159 3.20282 5.29749 3.54463 5.29776H3.78892V5.7278H3.75864C2.82367 5.7294 1.92747 6.10152 1.26635 6.76264C0.605229 7.42376 0.233108 8.31997 0.231506 9.25493L0.231506 24.4719C0.232842 25.4072 0.604984 26.3038 1.26635 26.9652C1.92771 27.6265 2.82433 27.9987 3.75965 28H13.9453C14.8806 27.9987 15.7773 27.6265 16.4386 26.9652C17.1 26.3038 17.4721 25.4072 17.4735 24.4719V9.25493C17.4721 8.31962 17.1 7.423 16.4386 6.76163C15.7773 6.10027 14.8806 5.72813 13.9453 5.72679ZM4.15839 1.90186H13.5466V3.39489H4.15839V1.90186ZM15.5756 24.4719C15.5751 24.9027 15.4037 25.3158 15.099 25.6205C14.7943 25.9252 14.3812 26.0966 13.9504 26.0971H3.75965C3.32876 26.0966 2.91568 25.9252 2.611 25.6205C2.30632 25.3158 2.13491 24.9027 2.13438 24.4719V9.25493C2.13491 8.82405 2.30632 8.41096 2.611 8.10628C2.91568 7.8016 3.32876 7.6302 3.75965 7.62966H5.69179V5.29776H12.0122V7.62966H13.9453C14.3762 7.6302 14.7893 7.8016 15.094 8.10628C15.3986 8.41096 15.57 8.82405 15.5706 9.25493L15.5756 24.4719Z" fill="#009EDF"/>
</g>
</svg>
