<svg width="25" height="28" viewBox="0 0 25 28" fill="none" xmlns="http://www.w3.org/2000/svg">
<path d="M23.5349 24.155H16.1914C17.6887 23.4641 19.003 22.4315 20.0286 21.1403C21.0543 19.8491 21.7627 18.3353 22.0969 16.7205C22.3757 15.3526 22.3738 13.9423 22.0914 12.5751C22.0861 12.5209 22.075 12.4674 22.0584 12.4156C21.7599 11.0755 21.1999 9.80757 20.4106 8.6843C19.6212 7.56103 18.618 6.60453 17.4584 5.86959L17.6249 5.54109C17.6579 5.47683 17.6777 5.40665 17.6833 5.33465C17.6889 5.26264 17.68 5.19025 17.6573 5.1217C17.6346 5.05314 17.5985 4.98979 17.551 4.93535C17.5036 4.88091 17.4457 4.83646 17.3809 4.80459L16.6809 4.45459L17.3809 3.0816L18.0914 3.4316C18.1693 3.46986 18.2547 3.49035 18.3414 3.4916C18.4643 3.49078 18.5833 3.44886 18.6795 3.37252C18.7758 3.29618 18.8437 3.18982 18.8725 3.07039C18.9012 2.95097 18.8892 2.82535 18.8383 2.71356C18.7873 2.60177 18.7004 2.51026 18.5914 2.4536L13.8064 0.0586104C13.6748 -0.00707591 13.5225 -0.0180227 13.3829 0.0281597C13.2432 0.0743421 13.1275 0.173903 13.0609 0.305109C13.0282 0.369407 13.0085 0.439566 13.0031 0.511522C12.9976 0.583478 13.0065 0.655801 13.0292 0.724302C13.0519 0.792803 13.0879 0.856121 13.1353 0.910587C13.1826 0.965054 13.2403 1.00959 13.3049 1.04161L13.9984 1.38711L13.2999 2.7581L12.5999 2.4081C12.4689 2.34313 12.3179 2.33148 12.1785 2.3756C12.1092 2.39766 12.045 2.43323 11.9895 2.48026C11.9341 2.52729 11.8885 2.58485 11.8555 2.6496L9.13596 7.97408C9.10334 8.0384 9.08377 8.10855 9.07839 8.18047C9.073 8.2524 9.08191 8.32468 9.10459 8.39314C9.12727 8.46161 9.16328 8.5249 9.21055 8.57938C9.25781 8.63387 9.31539 8.67845 9.37996 8.71058L10.08 9.06058L9.11996 10.9391C9.08667 11.0032 9.06657 11.0733 9.06084 11.1453C9.05512 11.2173 9.06389 11.2898 9.08664 11.3583C9.10938 11.4269 9.14565 11.4902 9.19328 11.5445C9.24091 11.5989 9.29895 11.6431 9.36396 11.6746L11.7555 12.8746C11.8334 12.9127 11.9187 12.9332 12.0055 12.9346C12.1076 12.9359 12.2081 12.9085 12.2955 12.8554C12.3828 12.8024 12.4535 12.7259 12.4994 12.6346L13.4594 10.7561L14.1594 11.1061C14.2241 11.139 14.2946 11.1589 14.3669 11.1644C14.4393 11.17 14.512 11.1612 14.5809 11.1386C14.6501 11.1165 14.7142 11.081 14.7695 11.0339C14.8248 10.9869 14.8701 10.9293 14.9029 10.8646L15.9404 8.82758C16.9489 9.53784 17.7557 10.4976 18.2821 11.6131C18.8084 12.7286 19.0363 13.9616 18.9434 15.1916C18.9302 15.2378 18.9226 15.2855 18.9209 15.3336V15.3726C18.8984 15.5975 18.8659 15.817 18.8209 16.043C18.5696 17.294 17.9875 18.4548 17.1354 19.4045C16.2832 20.3542 15.192 21.0582 13.9754 21.443C13.2397 20.7163 12.2456 20.3114 11.2115 20.317H4.54998C4.40411 20.317 4.26422 20.375 4.16107 20.4781C4.05793 20.5813 3.99998 20.7212 3.99998 20.867C3.99998 21.0129 4.05793 21.1528 4.16107 21.2559C4.26422 21.3591 4.40411 21.417 4.54998 21.417H8.49997C8.1272 21.77 7.83088 22.1958 7.62937 22.668C7.42786 23.1401 7.32544 23.6486 7.32847 24.162H0.554499C0.484689 24.1577 0.414721 24.1674 0.348746 24.1907C0.282771 24.2139 0.222132 24.2501 0.170421 24.2972C0.11871 24.3443 0.0769805 24.4013 0.0477066 24.4648C0.0184326 24.5284 0.0022093 24.5971 1.55756e-07 24.667V27.413C-0.000109129 27.5632 0.0572942 27.7077 0.160419 27.8169C0.263544 27.926 0.40456 27.9916 0.554499 28H23.5349C23.6849 27.9916 23.8261 27.9261 23.9293 27.8169C24.0326 27.7078 24.0903 27.5633 24.0904 27.413V24.667C24.0891 24.5964 24.0736 24.5268 24.0446 24.4624C24.0157 24.398 23.974 24.3401 23.9221 24.2923C23.8702 24.2444 23.8091 24.2076 23.7426 24.184C23.676 24.1604 23.6054 24.1505 23.5349 24.155ZM21.1924 14.8201H20.0829C20.0919 14.2675 20.0434 13.7156 19.9384 13.1731H21.0704C21.1619 13.7176 21.2028 14.2695 21.1924 14.8216V14.8201ZM11.7625 11.6581L10.3575 10.9551L11.068 9.56507L12.4729 10.2676L11.7625 11.6581ZM14.1654 9.88357L10.369 7.98958L12.5884 3.6396L16.3884 5.53459L14.1654 9.88357ZM15.6914 3.9596L14.2874 3.2551L14.9874 1.8831L16.3924 2.5856L15.6914 3.9596ZM16.4519 7.85958L16.9574 6.87608C18.8348 8.08173 20.2082 9.9305 20.8204 12.0761H19.6544C19.0817 10.355 17.9548 8.8722 16.4499 7.85958H16.4519ZM17.7949 20.319C18.8699 19.2018 19.6053 17.8021 19.9154 16.283C19.9429 16.157 19.9599 16.03 19.9824 15.9205H21.1039C21.0754 16.0855 21.0424 16.299 21.0039 16.4975C20.6833 18.0661 19.9653 19.5261 18.9186 20.7375C17.872 21.949 16.5318 22.8715 15.0264 23.4165C14.9563 23.0523 14.833 22.7004 14.6604 22.372C15.8467 21.9326 16.9183 21.2311 17.7949 20.319ZM11.212 21.427C11.5737 21.4229 11.9327 21.4904 12.2682 21.6255C12.6038 21.7606 12.9094 21.9607 13.1674 22.2143C13.4253 22.4679 13.6306 22.77 13.7715 23.1033C13.9123 23.4365 13.9859 23.7943 13.9879 24.156H8.43797C8.43992 23.7944 8.51334 23.4367 8.65399 23.1036C8.79464 22.7704 8.99976 22.4684 9.25755 22.2148C9.51534 21.9611 9.82072 21.761 10.1561 21.6258C10.4915 21.4906 10.8503 21.4231 11.212 21.427ZM22.9794 26.9025H1.11V25.255H22.9794V26.9025Z" fill="#1298D5"/>
</svg>
