<svg width="21" height="28" viewBox="0 0 21 28" fill="none" xmlns="http://www.w3.org/2000/svg">
<mask id="mask0_1_99" style="mask-type:luminance" maskUnits="userSpaceOnUse" x="0" y="0" width="21" height="28">
<path d="M20.3106 0H0.420654V28H20.3106V0Z" fill="white"/>
</mask>
<g mask="url(#mask0_1_99)">
<path d="M7.10816 28C6.96794 28.0001 6.8301 27.9638 6.70819 27.8945C6.38845 27.7142 -1.08501 23.4053 0.694052 16.6059C1.44479 13.7364 3.60567 11.5018 5.69568 9.33915C8.36603 6.57627 10.6686 4.19053 9.61454 1.07805C9.55949 0.916681 9.55635 0.742124 9.60556 0.578879C9.65478 0.415634 9.75387 0.271896 9.88893 0.167836C10.024 0.0637764 10.1883 0.00461918 10.3587 -0.00133323C10.5291 -0.00728565 10.697 0.0402655 10.839 0.134647C10.9298 0.193207 19.2131 5.80386 15.8354 16.21C16.6658 15.4681 17.3498 14.6289 17.4335 13.9063C17.4533 13.7323 17.5286 13.5694 17.6481 13.4415C17.7677 13.3136 17.9252 13.2276 18.0975 13.1962C18.2697 13.1647 18.4474 13.1895 18.6045 13.2669C18.7615 13.3442 18.8895 13.4701 18.9695 13.6258C19.0176 13.7177 23.614 22.8812 15.5057 27.8782C15.3705 27.9613 15.2141 28.0032 15.0555 27.9989C14.8969 27.9946 14.743 27.9441 14.6125 27.8538C14.4821 27.7634 14.3808 27.637 14.321 27.49C14.2613 27.3431 14.2456 27.1818 14.2759 27.0261C14.427 26.2609 14.486 25.4804 14.4516 24.7013C13.7641 25.8209 12.8629 27.0595 12.1033 27.3365C11.9629 27.3875 11.8112 27.399 11.6647 27.3697C11.5182 27.3405 11.3825 27.2716 11.2725 27.1705C11.1624 27.0695 11.0822 26.9401 11.0406 26.7967C10.9989 26.6532 10.9975 26.501 11.0364 26.3568C11.413 24.6079 11.1885 22.7831 10.3992 21.1777C9.72004 19.8315 9.37687 18.3408 9.39903 16.8331C8.61335 17.7977 8.03524 18.9141 7.7009 20.1124C7.36656 21.3107 7.28319 22.5651 7.456 23.7971C7.48023 24.0123 7.41799 24.2283 7.28296 24.3976C7.14794 24.5668 6.95119 24.6756 6.73601 24.6998C6.52082 24.724 6.30483 24.6618 6.13554 24.5268C5.96625 24.3917 5.85753 24.195 5.8333 23.9798C5.08314 17.3221 9.79022 14.1985 9.99225 14.0685C10.1299 13.9793 10.2913 13.9337 10.4552 13.9376C10.6192 13.9415 10.7782 13.9947 10.9115 14.0903C11.0448 14.1859 11.1462 14.3194 11.2026 14.4734C11.2589 14.6275 11.2675 14.7949 11.2273 14.9539C10.8357 16.7938 11.0527 18.7112 11.8457 20.417C12.4495 21.5857 12.7893 22.8727 12.8412 24.1871C13.1732 23.6712 13.5217 23.0803 13.8367 22.4842C13.8882 22.3875 13.9585 22.3022 14.0434 22.2332C14.1284 22.1641 14.2264 22.1128 14.3315 22.0823C14.4366 22.0517 14.5468 22.0425 14.6555 22.0552C14.7643 22.0679 14.8694 22.1023 14.9646 22.1562C15.9461 22.7172 16.144 24.1502 16.1048 25.4081C19.4427 22.401 18.8776 18.3486 18.1854 16.0812C17.1358 17.3509 15.8609 18.416 14.4247 19.2229C14.273 19.3091 14.0976 19.3444 13.9244 19.3236C13.7511 19.3029 13.5891 19.2271 13.462 19.1075C13.335 18.988 13.2496 18.8308 13.2184 18.6591C13.1872 18.4875 13.2118 18.3103 13.2886 18.1536C17.1184 10.2556 13.7395 5.12222 11.5131 2.84423C11.3995 5.78571 9.10448 8.15974 6.8704 10.4711C4.9262 12.4827 2.91641 14.5627 2.27401 17.017C0.814686 22.5954 7.44488 26.4329 7.51164 26.4709C7.6686 26.5598 7.79171 26.6982 7.86172 26.8645C7.93173 27.0307 7.9447 27.2155 7.89861 27.3899C7.85251 27.5643 7.74995 27.7185 7.60695 27.8284C7.46394 27.9384 7.28855 27.9979 7.10816 27.9976" fill="#1899D5"/>
</g>
</svg>
