<svg width="29" height="28" viewBox="0 0 29 28" fill="none" xmlns="http://www.w3.org/2000/svg">
<mask id="mask0_1_116" style="mask-type:luminance" maskUnits="userSpaceOnUse" x="0" y="0" width="29" height="28">
<path d="M28.2896 0H0.952637V28H28.2896V0Z" fill="white"/>
</mask>
<g mask="url(#mask0_1_116)">
<path d="M28.2897 15.6483C28.2918 15.1591 28.1414 14.6814 27.8593 14.2816C27.5772 13.8819 27.1776 13.58 26.716 13.4179C26.2544 13.2559 25.7537 13.2417 25.2837 13.3774C24.8136 13.5131 24.3976 13.792 24.0934 14.1751L21.1368 12.4679V8.3212C21.4243 8.17709 21.6793 7.97567 21.8861 7.72933C22.0928 7.483 22.247 7.19696 22.3391 6.88882C22.4312 6.58068 22.4593 6.25695 22.4216 5.93756C22.3839 5.61817 22.2812 5.30986 22.1199 5.03163C21.9586 4.75339 21.7421 4.5111 21.4837 4.31967C21.2252 4.12823 20.9304 3.99171 20.6172 3.91849C20.304 3.84527 19.9792 3.83691 19.6627 3.89392C19.3462 3.95093 19.0447 4.07211 18.7767 4.25L16.8446 3.13424C16.9343 2.88684 16.9815 2.62609 16.9844 2.36296C16.9748 1.74253 16.7216 1.15075 16.2795 0.715393C15.8374 0.280032 15.2418 0.0360107 14.6213 0.0360107C14.0008 0.0360107 13.4051 0.280032 12.963 0.715393C12.5209 1.15075 12.2677 1.74253 12.2581 2.36296C12.2609 2.62609 12.3082 2.88685 12.3979 3.13424L10.3547 4.31427C10.084 4.11642 9.77429 3.97858 9.44613 3.90995C9.11796 3.84132 8.77893 3.84348 8.45167 3.91629C8.12441 3.9891 7.81644 4.13089 7.54833 4.33218C7.28022 4.53346 7.05813 4.78963 6.89688 5.08357C6.73564 5.37752 6.63895 5.70247 6.61328 6.03675C6.5876 6.37103 6.63352 6.70694 6.74799 7.02206C6.86245 7.33718 7.04281 7.62426 7.27704 7.86413C7.51126 8.10401 7.79396 8.29116 8.10627 8.4131V12.4679L5.14913 14.1751C4.92327 13.8927 4.63545 13.6661 4.30795 13.5128C3.98045 13.3595 3.62207 13.2836 3.26053 13.2909C2.899 13.2983 2.54401 13.3888 2.22306 13.5554C1.9021 13.722 1.62379 13.9602 1.40965 14.2516C1.19552 14.543 1.05131 14.8797 0.9882 15.2358C0.925086 15.5919 0.944755 15.9577 1.04568 16.3049C1.14661 16.6522 1.3261 16.9715 1.57024 17.2383C1.81439 17.505 2.11664 17.712 2.45361 17.8432V22.7562C2.45359 22.9074 2.49339 23.0561 2.569 23.1871C2.64461 23.3181 2.75337 23.4269 2.88435 23.5026L6.60543 25.6518C6.60543 26.2782 6.85426 26.8789 7.29717 27.3219C7.74009 27.7648 8.34081 28.0136 8.96719 28.0136C9.59357 28.0136 10.1943 27.7648 10.6372 27.3219C11.0801 26.8789 11.3289 26.2782 11.3289 25.6518L14.6204 23.7518L17.9113 25.6518C17.9209 26.2718 18.1739 26.8632 18.6157 27.2982C19.0575 27.7333 19.6527 27.9771 20.2728 27.9771C20.8928 27.9771 21.488 27.7333 21.9299 27.2982C22.3717 26.8632 22.6247 26.2718 22.6343 25.6518L26.3553 23.5026C26.4863 23.4269 26.5949 23.318 26.6705 23.187C26.7461 23.056 26.786 22.9074 26.7861 22.7562V17.8432C27.2276 17.6702 27.6069 17.3684 27.8745 16.9769C28.1422 16.5855 28.2859 16.1225 28.2869 15.6483M25.9291 15.009C26.0555 15.0091 26.1791 15.0467 26.2842 15.117C26.3892 15.1873 26.4711 15.2872 26.5194 15.4041C26.5677 15.5209 26.5803 15.6494 26.5555 15.7734C26.5308 15.8974 26.4699 16.0113 26.3804 16.1006C26.291 16.19 26.1771 16.2508 26.0531 16.2754C25.9291 16.3001 25.8005 16.2874 25.6838 16.239C25.567 16.1906 25.4671 16.1086 25.3969 16.0035C25.3267 15.8984 25.2892 15.7748 25.2892 15.6483C25.2893 15.4787 25.3568 15.3161 25.4768 15.1962C25.5968 15.0763 25.7595 15.009 25.9291 15.009ZM20.0802 5.57887C20.2067 5.57898 20.3302 5.61658 20.4353 5.6869C20.5404 5.75722 20.6222 5.85711 20.6705 5.97394C20.7188 6.09078 20.7314 6.21931 20.7067 6.3433C20.682 6.46728 20.621 6.58115 20.5316 6.67051C20.4421 6.75987 20.3282 6.8207 20.2042 6.84533C20.0802 6.86995 19.9517 6.85726 19.8349 6.80885C19.7181 6.76044 19.6183 6.67849 19.548 6.57337C19.4778 6.46824 19.4403 6.34465 19.4403 6.21822C19.4405 6.0486 19.508 5.88598 19.628 5.7661C19.748 5.64621 19.9106 5.57887 20.0802 5.57887ZM14.6215 1.72361C14.748 1.72372 14.8715 1.76131 14.9766 1.83163C15.0817 1.90195 15.1635 2.00184 15.2118 2.11868C15.2601 2.23552 15.2727 2.36405 15.248 2.48803C15.2232 2.61202 15.1623 2.72589 15.0729 2.81524C14.9834 2.9046 14.8695 2.96544 14.7455 2.99006C14.6215 3.01469 14.493 3.00199 14.3762 2.95359C14.2594 2.90518 14.1596 2.82323 14.0893 2.7181C14.0191 2.61297 13.9816 2.48939 13.9816 2.36296C13.9818 2.19334 14.0493 2.03072 14.1693 1.91084C14.2892 1.79095 14.4519 1.72361 14.6215 1.72361ZM9.82924 8.4131C10.271 8.24038 10.6505 7.93861 10.9183 7.54712C11.1861 7.15562 11.3298 6.69255 11.3306 6.21822C11.3298 6.06677 11.3145 5.91574 11.285 5.76718L13.5492 4.45917C13.8787 4.63541 14.2467 4.72761 14.6204 4.72761C14.9941 4.72761 15.3621 4.63541 15.6916 4.45917L17.7884 5.66908C17.6394 6.25613 17.7259 6.87819 18.0296 7.40225C18.3332 7.92631 18.8299 8.31077 19.4133 8.47342V12.1381L16.2656 13.9558C15.8267 13.5257 15.2366 13.2848 14.6221 13.2848C14.0076 13.2848 13.4176 13.5257 12.9786 13.9558L9.83037 12.1387L9.82924 8.4131ZM8.96832 5.57887C9.09479 5.57876 9.21846 5.61616 9.32367 5.68635C9.42889 5.75653 9.51092 5.85635 9.5594 5.97316C9.60788 6.08998 9.62062 6.21855 9.59601 6.34261C9.57141 6.46667 9.51056 6.58064 9.42117 6.67011C9.33178 6.75958 9.21786 6.82053 9.09382 6.84524C8.96978 6.86996 8.8412 6.85733 8.72434 6.80896C8.60748 6.76058 8.5076 6.67864 8.43732 6.57348C8.36704 6.46833 8.32953 6.3447 8.32953 6.21822C8.32968 6.0488 8.39701 5.88635 8.51676 5.7665C8.6365 5.64664 8.79889 5.57917 8.96832 5.57887ZM3.31566 16.2877C3.18921 16.2877 3.06559 16.2502 2.96045 16.1799C2.85531 16.1097 2.77337 16.0098 2.72498 15.893C2.67658 15.7762 2.66392 15.6476 2.68859 15.5236C2.71326 15.3996 2.77415 15.2857 2.86357 15.1963C2.95298 15.1068 3.0669 15.0459 3.19093 15.0213C3.31495 14.9966 3.4435 15.0093 3.56033 15.0577C3.67715 15.1061 3.777 15.188 3.84726 15.2931C3.91751 15.3983 3.95501 15.5219 3.95501 15.6483C3.95486 15.8179 3.88745 15.9804 3.76758 16.1003C3.64771 16.2201 3.48518 16.2875 3.31566 16.2877ZM8.96832 26.2765C8.84184 26.2765 8.71821 26.239 8.61305 26.1687C8.5079 26.0985 8.42596 25.9986 8.37758 25.8817C8.32921 25.7649 8.31658 25.6363 8.34129 25.5122C8.36601 25.3882 8.42696 25.2743 8.51643 25.1849C8.6059 25.0955 8.71987 25.0347 8.84393 25.0101C8.96799 24.9854 9.09656 24.9982 9.21338 25.0467C9.33019 25.0951 9.43001 25.1772 9.50019 25.2824C9.57037 25.3876 9.60778 25.5113 9.60767 25.6377C9.60737 25.8072 9.53989 25.9696 9.42004 26.0893C9.30019 26.2091 9.13774 26.2764 8.96832 26.2765ZM13.7606 22.2583L10.6919 24.0304C10.4727 23.792 10.2065 23.6017 9.90998 23.4716C9.6135 23.3414 9.29324 23.2742 8.96944 23.2742C8.64565 23.2742 8.32538 23.3414 8.0289 23.4716C7.73242 23.6017 7.46619 23.792 7.24703 24.0304L4.17714 22.2583V17.8432C4.58179 17.6829 4.93416 17.4137 5.19518 17.0654C5.4562 16.7171 5.6157 16.3033 5.65599 15.8699L8.96775 13.9575L12.2801 15.8699C12.3202 16.3033 12.4797 16.7172 12.7407 17.0655C13.0018 17.4138 13.3542 17.683 13.7589 17.8432L13.7606 22.2583ZM14.6227 16.2877C14.4962 16.2878 14.3725 16.2504 14.2673 16.1802C14.1621 16.11 14.0801 16.0102 14.0316 15.8934C13.9831 15.7766 13.9704 15.648 13.995 15.524C14.0196 15.3999 14.0804 15.2859 14.1698 15.1965C14.2592 15.107 14.3731 15.046 14.4972 15.0213C14.6212 14.9966 14.7498 15.0092 14.8666 15.0576C14.9835 15.106 15.0834 15.1879 15.1537 15.2931C15.2239 15.3982 15.2615 15.5219 15.2615 15.6483C15.2613 15.8178 15.194 15.9802 15.0742 16.1001C14.9545 16.2199 14.7921 16.2874 14.6227 16.2877ZM20.2742 26.2765C20.1476 26.277 20.0238 26.2398 19.9183 26.1698C19.8129 26.0998 19.7306 26.0001 19.6819 25.8833C19.6331 25.7665 19.6202 25.6378 19.6446 25.5136C19.6691 25.3894 19.7299 25.2753 19.8193 25.1857C19.9086 25.0961 20.0226 25.035 20.1467 25.0102C20.2708 24.9854 20.3995 24.998 20.5165 25.0465C20.6334 25.0949 20.7334 25.1769 20.8037 25.2822C20.8739 25.3874 20.9114 25.5112 20.9113 25.6377C20.911 25.8071 20.8436 25.9694 20.7239 26.0891C20.6041 26.2088 20.4418 26.2762 20.2725 26.2765M21.9944 24.0304C21.7752 23.792 21.509 23.6017 21.2125 23.4716C20.916 23.3414 20.5957 23.2742 20.2719 23.2742C19.9481 23.2742 19.6279 23.3414 19.3314 23.4716C19.0349 23.6017 18.7687 23.792 18.5495 24.0304L15.4813 22.2583V17.8432C15.9229 17.6703 16.3022 17.3684 16.5699 16.977C16.8376 16.5855 16.9812 16.1226 16.9822 15.6483C16.9822 15.6106 16.9731 15.5756 16.9715 15.5356L19.9878 13.7946L23.5843 15.8705C23.6244 16.3039 23.7839 16.7177 24.0449 17.066C24.306 17.4144 24.6584 17.6836 25.0631 17.8438V22.2589L21.9944 24.0304Z" fill="#1899D5"/>
</g>
</svg>
