<?xml version="1.0" encoding="iso-8859-1"?>
<!-- Generator: Adobe Illustrator 21.0.0, SVG Export Plug-In . SVG Version: 6.00 Build 0)  -->
<svg xmlns="http://www.w3.org/2000/svg" xmlns:xlink="http://www.w3.org/1999/xlink" version="1.1" id="Capa_1" x="0px" y="0px" viewBox="0 0 512 512" style="enable-background:new 0 0 512 512;" xml:space="preserve" width="38px" height="38px" fill="#fff">
<g>
	<path d="M437.02,74.98C388.667,26.629,324.38,0,256,0S123.333,26.629,74.98,74.98C26.629,123.333,0,187.62,0,256   s26.629,132.667,74.98,181.02C123.333,485.371,187.62,512,256,512c26.524,0,52.673-4.042,77.721-12.015l-9.099-28.587   C302.52,478.433,279.432,482,256,482C131.383,482,30,380.617,30,256S131.383,30,256,30s226,101.383,226,226v83.828   c0,31.335-25.493,56.828-56.828,56.828h-17.738l35.592-35.592l-97.094-97.094l-37.543,37.544   c-16.343-11.232-32.217-24.52-47.314-39.617c-15.411-15.412-28.922-31.608-40.281-48.275l37.396-37.395l-97.094-97.095   l-49.763,49.764l-0.411,0.427c-18.848,20.398-20.461,54.168-4.542,95.088c14.481,37.225,42.2,77.469,78.05,113.318   c36.28,36.28,76.948,64.161,114.511,78.507c18.219,6.958,34.964,10.417,49.715,10.417c0.601,0,1.188-0.022,1.782-0.034v0.036   h74.735c47.877,0,86.828-38.951,86.828-86.828V256C512,187.62,485.371,123.333,437.02,74.98z"/>
	<path d="M421.578,224.399c0.503-37.357-13.762-72.472-40.166-98.876c-26.404-26.404-61.52-40.679-98.875-40.166l0.403,29.997   c29.181-0.406,56.629,10.752,77.259,31.381c20.63,20.63,31.774,48.068,31.382,77.26L421.578,224.399z"/>
	<path d="M284.267,144.804l0.403,29.997c12.767-0.15,24.753,4.695,33.761,13.703c9.008,9.007,13.875,20.997,13.703,33.761   l29.997,0.403c0.282-20.929-7.704-40.596-22.486-55.377C324.863,152.508,305.171,144.504,284.267,144.804z"/>
</g>
</svg>
