<svg id="Grupo_2860" data-name="Grupo 2860" xmlns="http://www.w3.org/2000/svg" xmlns:xlink="http://www.w3.org/1999/xlink" width="29.091" height="29.147" viewBox="0 0 29.091 29.147">
  <defs>
    <clipPath id="clip-path">
      <rect id="Retângulo_952" data-name="Retângulo 952" width="29.091" height="29.147" transform="translate(0 0)" fill="#fff"/>
    </clipPath>
  </defs>
  <g id="Grupo_2859" data-name="Grupo 2859" clip-path="url(#clip-path)">
    <path id="Caminho_83273" data-name="Caminho 83273" d="M25.469,29.147c-.1,0-.2,0-.306-.014a28.247,28.247,0,0,1-12.271-4.361A27.9,27.9,0,0,1,4.373,16.25,28.224,28.224,0,0,1,.015,3.941,3.6,3.6,0,0,1,3.284.015C3.389.006,3.495,0,3.6,0H7.769A3.613,3.613,0,0,1,11.33,3.1a16.942,16.942,0,0,0,.919,3.692,3.615,3.615,0,0,1-.811,3.8l-1.289,1.287a21.19,21.19,0,0,0,7.061,7.061l1.284-1.283a3.611,3.611,0,0,1,3.805-.815,16.917,16.917,0,0,0,3.683.917,3.6,3.6,0,0,1,3.108,3.617v4.153A3.605,3.605,0,0,1,25.5,29.147ZM7.761,1.7H3.6c-.055,0-.111,0-.165.008A1.9,1.9,0,0,0,1.708,3.775,26.505,26.505,0,0,0,5.8,15.331a26.206,26.206,0,0,0,8.007,8.01,26.533,26.533,0,0,0,11.521,4.1c.042,0,.1.006.157.006a1.9,1.9,0,0,0,1.9-1.911v-4.09q0-.031,0-.063a1.9,1.9,0,0,0-1.639-1.936A18.572,18.572,0,0,1,21.7,18.437a1.908,1.908,0,0,0-2.01.428l-1.746,1.746a.85.85,0,0,1-1.022.137,22.891,22.891,0,0,1-8.582-8.583.849.849,0,0,1,.138-1.022l1.751-1.749a1.909,1.909,0,0,0,.425-2.005A18.622,18.622,0,0,1,9.645,3.331,1.907,1.907,0,0,0,7.761,1.7" fill="#fff"/>
  </g>
</svg>
