<svg xmlns="http://www.w3.org/2000/svg" xmlns:xlink="http://www.w3.org/1999/xlink" width="19.718" height="19.721" viewBox="0 0 19.718 19.721">
  <defs>
    <clipPath id="clip-path">
      <rect id="Retângulo_694" data-name="Retângulo 694" width="19.718" height="19.721" fill="#818181"/>
    </clipPath>
  </defs>
  <g id="Grupo_2269" data-name="Grupo 2269" transform="translate(0 0)">
    <g id="Grupo_2268" data-name="Grupo 2268" transform="translate(0 0)" clip-path="url(#clip-path)">
      <path id="Caminho_722" data-name="Caminho 722" d="M19.037,13.282,15.874,10.8a1.993,1.993,0,0,0-2.49.07l-1.63,1.432a17.652,17.652,0,0,1-2.39-1.95,17.651,17.651,0,0,1-1.949-2.39L8.846,6.336a2,2,0,0,0,.069-2.489L6.439.684A1.8,1.8,0,0,0,3.975.342L.334,3A.814.814,0,0,0,0,3.666c.045,3.46,2.027,7.48,5.3,10.753s7.294,5.256,10.753,5.3h.011a.813.813,0,0,0,.657-.334l2.657-3.642a1.8,1.8,0,0,0-.342-2.463m-.971,1.506-2.4,3.292c-2.922-.193-6.41-2.006-9.214-4.81S1.834,6.978,1.641,4.057l3.292-2.4a.156.156,0,0,1,.094-.029.172.172,0,0,1,.133.06L7.637,4.848a.378.378,0,0,1-.012.416l-1.84,2.1a.814.814,0,0,0-.081.963,19.723,19.723,0,0,0,2.511,3.183A19.782,19.782,0,0,0,11.4,14.017a.813.813,0,0,0,.963-.081l2.1-1.84a.4.4,0,0,1,.416-.012l3.163,2.478a.172.172,0,0,1,.031.226" transform="translate(0 0)" fill="#818181"/>
    </g>
  </g>
</svg>
